<svg width="168" height="58" viewBox="0 0 168 58" fill="none" xmlns="http://www.w3.org/2000/svg">
<path d="M49.9931 57.0061C49.9931 57.0061 47.4193 51.9157 45.9489 49.4714C43.4608 45.3416 40.674 41.4363 37.4402 37.864C34.72 34.8584 31.7659 32.1173 28.4731 29.7566C28.1269 29.5093 28.0451 29.5949 27.931 29.9507C26.2988 35.0867 24.5792 40.1923 22.6846 45.2351C21.9541 47.1811 21.2237 49.1328 20.2897 50.9875C18.8193 53.9074 16.6945 56.0854 13.3827 56.7893C13.0308 56.8635 12.6751 56.9148 12.3193 56.97C12.1729 56.9928 12.0264 57.0061 11.878 57.0061L11.0848 57.0518C10.7519 57.0708 10.419 57.0708 10.0861 57.0556L9.1331 57.008C8.9638 57.008 8.7945 56.9852 8.63091 56.9414C8.12492 56.8083 7.61512 56.6884 7.12434 56.5115C4.4479 55.5528 2.7473 53.584 1.65542 51.0179C0.736643 48.8569 0.224943 46.5857 0.0442313 44.2555C0.0328179 44.109 -0.111752 42.6842 0.192605 39.0338C0.732839 35.3492 2.2356 32.1192 4.69899 29.3515C6.09904 27.7783 7.71023 26.4696 9.63339 25.5926C12.1424 24.4494 14.7751 24.0328 17.52 24.1679C19.7552 24.2782 21.9237 24.7005 24.0371 25.4233C24.4099 25.5508 24.5241 25.4728 24.6496 25.1152C27.4649 17.0763 30.6055 8.03503 33.4341 0H35.4828L53.4589 57.008H49.9931V57.0061ZM9.49833 28.2463C8.14584 29.4123 7.19472 30.877 6.489 32.5054C5.57022 34.6187 5.12319 36.852 4.8702 39.1365C4.69709 40.6964 4.62481 42.2657 4.64383 43.8274C4.67617 46.3612 4.77699 48.9007 5.60636 51.3337C6.02675 52.5682 6.60884 53.7038 7.67219 54.5218C9.29289 55.7697 12.6028 55.996 14.3357 53.4794C15.03 52.4712 15.5379 51.3698 15.9374 50.2209C18.0622 44.109 20.1756 37.9933 22.2927 31.8795C22.7721 30.4966 23.2477 29.1118 23.7461 27.7346C23.8811 27.3617 23.8088 27.1867 23.4322 27.0479C21.2731 26.2546 19.0647 25.7505 16.7592 25.7696C14.0485 25.7391 11.5889 26.4448 9.49833 28.2463ZM35.4828 7.86573C35.2793 8.42879 29.0133 26.8405 28.8364 27.2894C28.7242 27.5748 28.806 27.7422 29.0438 27.9153C32.5344 30.4605 35.7872 33.2891 38.7794 36.4125C41.2903 39.0319 44.7695 43.816 47.0275 47.0403C47.4231 47.6034 48.2925 47.164 48.0813 46.5077C45.4524 38.2919 39.0381 18.8797 35.4809 7.86763L35.4828 7.86573Z" fill="url(#paint0_linear_24_3300)"/>
<path d="M69.2152 42.5529C68.2755 40.2417 67.9102 39.3819 67.9102 39.3819L66.7194 36.5514H61.0641L58.7281 42.5529H57.2634L64.3169 25.6782H65.1634L72.3995 42.5529H69.2171H69.2152ZM63.8337 29.6196L61.4521 35.4633H66.2838L63.8337 29.6196Z" fill="url(#paint1_linear_24_3300)"/>
<path d="M89.2514 42.5529V28.8492L83.1376 42.5529H82.1979L76.1298 28.8492V42.5529H75.0074V25.6782H77.7543L83.6169 38.7694L89.4568 25.6782H92.2036V42.5529H89.2495H89.2514Z" fill="url(#paint2_linear_24_3300)"/>
<path d="M102.921 34.7386C103.493 35.1456 104.157 35.781 104.935 36.8006C104.935 36.8006 106.172 38.4536 107.844 42.5529H105.325C105.097 41.6018 102.784 34.807 98.4791 34.807L98.0663 34.7842V42.5529H95.1578V25.6782H99.027C100.585 25.6782 101.867 25.7695 102.873 26.0625C103.881 26.3573 104.728 26.7644 105.369 27.4663C106.01 28.1682 106.332 29.0071 106.332 29.9811C106.332 31.1129 105.919 32.0868 105.072 32.8801C104.408 33.5135 103.492 34.0576 102.324 34.3296C102.506 34.4437 102.714 34.5559 102.919 34.7367L102.921 34.7386ZM98.7987 26.9242L98.0663 26.9014V33.6961H99.6928C99.9667 33.6961 100.243 33.6277 100.516 33.5611C100.79 33.4945 101.043 33.4032 101.272 33.3347C101.662 33.2206 102.004 32.9505 102.303 32.6784C102.554 32.4292 102.761 32.1344 102.921 31.7273C103.058 31.3202 103.149 30.8219 103.149 30.2093C103.149 29.1213 102.875 28.3299 102.348 27.7174C101.89 27.1506 100.722 26.9242 98.7987 26.9242Z" fill="url(#paint3_linear_24_3300)"/>
<path d="M117.096 42.5529C114.486 42.5529 112.883 41.7597 111.234 40.198C109.539 38.6343 108.715 36.5514 108.715 33.991C108.715 31.4306 109.561 29.4846 111.256 27.9438C112.951 26.4258 114.53 25.6782 117.071 25.6782C119.613 25.6782 121.216 26.4258 122.934 27.921C124.652 29.4389 125.521 31.4991 125.521 34.0823C125.521 36.6655 124.698 38.6343 123.048 40.198C121.399 41.7616 119.775 42.5529 117.094 42.5529H117.096ZM117.073 26.8101C115.264 26.8101 114.418 27.3997 113.433 28.6229C112.47 29.8232 111.968 31.6132 111.968 34.0823C111.968 36.5514 112.472 38.408 113.433 39.6083C114.418 40.8086 115.31 41.3983 117.256 41.3983C118.951 41.3983 120.026 40.8086 121.011 39.6083C121.996 38.408 122.247 36.618 122.247 34.1051C122.247 31.5923 121.996 29.8688 121.034 28.6685C120.073 27.4226 118.928 26.812 117.073 26.812V26.8101Z" fill="url(#paint4_linear_24_3300)"/>
<path d="M134.27 35.8704V42.5529H131.338V36.0302L124.812 25.6782H128.475L133.672 34.5578L138.846 25.6782H140.519L134.268 35.8704H134.27Z" fill="url(#paint5_linear_24_3300)"/>
<path d="M149.13 42.5529C148.19 40.2417 147.825 39.3819 147.825 39.3819L146.634 36.5514H140.979L138.643 42.5529H137.178L144.23 25.6782H145.076L152.312 42.5529H149.13ZM143.748 29.6196L141.367 35.4633H146.198L143.748 29.6196Z" fill="url(#paint6_linear_24_3300)"/>
<path d="M167.129 42.5529L156.001 28.0788V42.1439H154.878V25.6763H157.81L166.741 37.4777V25.6763H168V42.551H167.131L167.129 42.5529Z" fill="url(#paint7_linear_24_3300)"/>
<path d="M67.5564 55.1742C66.4645 56.3954 65.0683 57.0326 63.3677 57.0326C61.5777 57.0326 60.1092 56.4658 58.964 55.3511C57.836 54.2173 57.2634 52.7298 57.2634 50.8884C57.2634 49.6672 57.5145 48.5335 58.051 47.453C58.5703 46.3725 59.3045 45.5755 60.2537 45.0619C61.1839 44.5483 62.2225 44.282 63.3506 44.282C64.2808 44.282 65.1235 44.476 65.8748 44.8488C66.6091 45.2198 67.1646 45.6288 67.5393 46.0701V46.1233L67.1817 46.46C66.9838 46.1595 66.7346 45.9103 66.4836 45.7163C65.6237 45.0619 64.6764 44.7423 63.6188 44.7423C62.312 44.7423 61.2733 45.273 60.5048 46.3193C59.7344 47.3636 59.3597 48.8511 59.3597 50.799C59.3597 52.6404 59.7706 54.0576 60.6133 55.0486C61.4541 56.0226 62.4927 56.519 63.7462 56.519C64.4082 56.519 65.0892 56.3593 65.7873 56.0416C66.3599 55.7753 66.826 55.3682 67.2007 54.8013L67.5583 55.1742H67.5564Z" fill="url(#paint8_linear_24_3300)"/>
<path d="M70.2043 45.9997C71.494 44.8488 72.6563 44.282 74.5908 44.282C76.5254 44.282 77.7238 44.8488 79.0135 45.9826C80.3204 47.1163 80.9652 48.6742 80.9652 50.6392C80.9652 52.6042 80.3394 54.0918 79.1029 55.2617C77.8493 56.4487 76.6509 57.0326 74.6098 57.0326C72.5688 57.0326 71.4407 56.4487 70.17 55.2617C68.9165 54.0937 68.2716 52.5167 68.2716 50.5689C68.2716 48.621 68.9165 47.1505 70.2043 45.9997ZM71.5644 55.0848C72.369 56.0758 73.1394 56.5723 74.7335 56.5723C76.1469 56.5723 77.0428 56.0758 77.8474 55.0848C78.6521 54.0937 78.8499 52.6233 78.8499 50.6583C78.8499 48.6933 78.6711 47.2761 77.8646 46.266C77.0599 45.2388 76.1107 44.7423 74.5889 44.7423C73.0671 44.7423 72.369 45.2388 71.5644 46.2299C70.7768 47.2209 70.3831 48.6914 70.3831 50.6392C70.3831 52.5871 70.7768 54.0918 71.5644 55.0848Z" fill="url(#paint9_linear_24_3300)"/>
<path d="M93.5124 44.282V57.0326H93.1719L84.1306 45.2921V56.715H83.7197V44.2839H85.6524L92.9741 53.9701V44.2839H93.5105L93.5124 44.282Z" fill="url(#paint10_linear_24_3300)"/>
<path d="M103.699 53.9341C103.59 54.9784 103.143 55.7755 102.375 56.3595C101.604 56.9263 100.638 57.1565 99.4569 57.0328C98.2756 56.9092 96.7177 55.9695 96.0195 54.8377L96.36 54.4667C97.3264 55.8306 98.0606 56.3614 99.3503 56.5744C100.21 56.6981 100.908 56.504 101.445 56.0608C101.964 55.6366 102.268 55.104 102.322 54.5029C102.394 53.8999 102.249 53.3691 101.875 52.9088C101.498 52.4656 100.783 51.952 99.727 51.368C98.7968 50.8373 98.0987 50.3941 97.6136 50.0212C97.1476 49.6503 96.809 49.2071 96.575 48.6744C96.36 48.1437 96.2706 47.594 96.3429 47.0271C96.4323 46.1597 96.809 45.4692 97.4881 44.9556C98.15 44.442 98.9566 44.2479 99.8868 44.3354C100.406 44.3887 100.872 44.5295 101.319 44.7425C101.766 44.9556 102.196 45.3626 102.626 45.9295L102.232 46.2491C102.126 46.0893 102 45.9295 101.875 45.7888C101.355 45.1857 100.71 44.851 99.9419 44.7787C99.2077 44.6893 98.6522 44.8319 98.2775 45.1857C97.8837 45.5396 97.6688 45.9466 97.6155 46.426C97.5622 46.9757 97.722 47.4703 98.1177 47.9135C98.4943 48.3568 99.2096 48.8704 100.265 49.4886C101.268 50.0555 101.983 50.5158 102.432 50.8525C102.898 51.1892 103.237 51.6134 103.471 52.146C103.703 52.6958 103.775 53.2797 103.703 53.9341H103.699Z" fill="url(#paint11_linear_24_3300)"/>
<path d="M116.642 44.282V51.4724C116.642 52.5358 116.533 53.3328 116.444 53.8635C116.354 54.3771 116.05 54.8907 115.639 55.3872C115.245 55.8837 114.673 56.2908 113.939 56.5913C113.204 56.8919 112.364 57.0345 111.414 57.0345C110.269 57.0345 109.32 56.8405 108.532 56.4677C107.762 56.0777 107.208 55.5831 106.885 54.9801C106.545 54.3771 106.349 53.563 106.419 52.5548L106.508 51.2613V44.2839H108.335V51.3145C108.335 52.6784 108.317 53.6524 108.441 54.2364C108.584 54.8203 108.871 55.3168 109.461 55.741C110.052 56.1843 110.857 56.3973 111.842 56.3973C112.613 56.3973 113.328 56.2565 113.973 55.9541C114.599 55.6706 115.101 55.3168 115.405 54.8907C115.71 54.4475 115.942 54.0062 116.014 53.544C116.086 53.1007 116.193 52.376 116.193 51.402V44.2839H116.64L116.642 44.282Z" fill="url(#paint12_linear_24_3300)"/>
<path d="M128.58 56.6084V57.0326H119.611V44.282H121.473V56.6065H128.58V56.6084Z" fill="url(#paint13_linear_24_3300)"/>
<path d="M137.549 44.7081H132.179V57.0327H130.317V44.7081H125L125.017 44.2839H137.549V44.7081Z" fill="url(#paint14_linear_24_3300)"/>
<path d="M141.451 44.282V57.0326H139.588V44.282H141.451Z" fill="url(#paint15_linear_24_3300)"/>
<path d="M154.215 44.282V57.0326H153.874L144.835 45.2921V56.715H144.424V44.2839H146.356L153.678 53.9701V44.2839H154.215V44.282Z" fill="url(#paint16_linear_24_3300)"/>
<path d="M166.208 51.596H167.998V53.6143C167.998 54.3752 167.677 55.1018 167.085 55.5793C166.655 55.9502 166.155 56.3231 165.814 56.4467C164.759 56.8367 163.809 57.0307 162.913 57.0307C161.141 57.0307 159.655 56.4467 158.474 55.2959C157.309 54.145 156.72 52.6746 156.72 50.8865C156.72 49.0984 157.275 47.5937 158.403 46.2641C159.531 44.9363 161.053 44.28 162.969 44.28C164.616 44.28 165.993 44.864 167.051 46.051V46.1043L166.64 46.5285C166.461 46.2812 166.263 46.032 166.031 45.838C165.244 45.0942 164.294 44.7233 163.166 44.7233C162.038 44.7233 160.983 45.1474 160.106 46.0168C159.246 46.8671 158.799 48.3907 158.799 50.5859C158.799 52.7811 159.229 54.3048 160.07 55.2255C160.893 56.129 161.932 56.5894 163.185 56.5894C163.811 56.5894 164.386 56.4657 164.903 56.1994C165.422 55.9521 165.763 55.6326 165.942 55.2616C166.14 54.8888 166.21 54.4284 166.21 53.8635V51.596H166.208Z" fill="url(#paint17_linear_24_3300)"/>
<defs>
<linearGradient id="paint0_linear_24_3300" x1="10.5217" y1="66.2852" x2="50.9841" y2="15.8551" gradientUnits="userSpaceOnUse">
<stop stop-color="#B88746"/>
<stop offset="1" stop-color="#FDF5A6"/>
</linearGradient>
<linearGradient id="paint1_linear_24_3300" x1="52.0323" y1="39.7034" x2="161.607" y2="2.20085" gradientUnits="userSpaceOnUse">
<stop stop-color="#B88746"/>
<stop offset="1" stop-color="#FDF5A6"/>
</linearGradient>
<linearGradient id="paint2_linear_24_3300" x1="53.6853" y1="44.3562" x2="162.959" y2="6.95835" gradientUnits="userSpaceOnUse">
<stop stop-color="#B88746"/>
<stop offset="1" stop-color="#FDF5A6"/>
</linearGradient>
<linearGradient id="paint3_linear_24_3300" x1="55.6313" y1="49.8157" x2="164.846" y2="12.4368" gradientUnits="userSpaceOnUse">
<stop stop-color="#B88746"/>
<stop offset="1" stop-color="#FDF5A6"/>
</linearGradient>
<linearGradient id="paint4_linear_24_3300" x1="57.1911" y1="54.6245" x2="166.628" y2="17.1695" gradientUnits="userSpaceOnUse">
<stop stop-color="#B88746"/>
<stop offset="1" stop-color="#FDF5A6"/>
</linearGradient>
<linearGradient id="paint5_linear_24_3300" x1="58.3915" y1="58.467" x2="167.966" y2="20.9645" gradientUnits="userSpaceOnUse">
<stop stop-color="#B88746"/>
<stop offset="1" stop-color="#FDF5A6"/>
</linearGradient>
<linearGradient id="paint6_linear_24_3300" x1="60.4116" y1="64.1851" x2="169.986" y2="26.6845" gradientUnits="userSpaceOnUse">
<stop stop-color="#B88746"/>
<stop offset="1" stop-color="#FDF5A6"/>
</linearGradient>
<linearGradient id="paint7_linear_24_3300" x1="62.0894" y1="68.117" x2="171.304" y2="30.7381" gradientUnits="userSpaceOnUse">
<stop stop-color="#B88746"/>
<stop offset="1" stop-color="#FDF5A6"/>
</linearGradient>
<linearGradient id="paint8_linear_24_3300" x1="56.6091" y1="52.9505" x2="165.946" y2="15.5297" gradientUnits="userSpaceOnUse">
<stop stop-color="#B88746"/>
<stop offset="1" stop-color="#FDF5A6"/>
</linearGradient>
<linearGradient id="paint9_linear_24_3300" x1="57.8074" y1="56.4163" x2="167.243" y2="18.9633" gradientUnits="userSpaceOnUse">
<stop stop-color="#B88746"/>
<stop offset="1" stop-color="#FDF5A6"/>
</linearGradient>
<linearGradient id="paint10_linear_24_3300" x1="59.3483" y1="60.6754" x2="168.561" y2="23.2966" gradientUnits="userSpaceOnUse">
<stop stop-color="#B88746"/>
<stop offset="1" stop-color="#FDF5A6"/>
</linearGradient>
<linearGradient id="paint11_linear_24_3300" x1="60.5714" y1="64.1282" x2="169.767" y2="26.755" gradientUnits="userSpaceOnUse">
<stop stop-color="#B88746"/>
<stop offset="1" stop-color="#FDF5A6"/>
</linearGradient>
<linearGradient id="paint12_linear_24_3300" x1="61.5872" y1="67.0859" x2="170.853" y2="29.6899" gradientUnits="userSpaceOnUse">
<stop stop-color="#B88746"/>
<stop offset="1" stop-color="#FDF5A6"/>
</linearGradient>
<linearGradient id="paint13_linear_24_3300" x1="63.0025" y1="71.5657" x2="172.558" y2="34.0726" gradientUnits="userSpaceOnUse">
<stop stop-color="#B88746"/>
<stop offset="1" stop-color="#FDF5A6"/>
</linearGradient>
<linearGradient id="paint14_linear_24_3300" x1="63.4324" y1="72.9601" x2="172.991" y2="35.4633" gradientUnits="userSpaceOnUse">
<stop stop-color="#B88746"/>
<stop offset="1" stop-color="#FDF5A6"/>
</linearGradient>
<linearGradient id="paint15_linear_24_3300" x1="65.2701" y1="76.4107" x2="174.011" y2="39.1955" gradientUnits="userSpaceOnUse">
<stop stop-color="#B88746"/>
<stop offset="1" stop-color="#FDF5A6"/>
</linearGradient>
<linearGradient id="paint16_linear_24_3300" x1="65.8921" y1="79.2108" x2="175.105" y2="41.8319" gradientUnits="userSpaceOnUse">
<stop stop-color="#B88746"/>
<stop offset="1" stop-color="#FDF5A6"/>
</linearGradient>
<linearGradient id="paint17_linear_24_3300" x1="67.2425" y1="83.4127" x2="176.585" y2="45.9901" gradientUnits="userSpaceOnUse">
<stop stop-color="#B88746"/>
<stop offset="1" stop-color="#FDF5A6"/>
</linearGradient>
</defs>
</svg>
