<svg width="19" height="14" viewBox="0 0 19 14" fill="none" xmlns="http://www.w3.org/2000/svg">
<path d="M16.5 0.5H2.5C1.96957 0.5 1.46086 0.710714 1.08579 1.08579C0.710714 1.46086 0.5 1.96957 0.5 2.5L0.5 4.5H18.5V2.5C18.5 1.96957 18.2893 1.46086 17.9142 1.08579C17.5391 0.710714 17.0304 0.5 16.5 0.5Z" fill="#D90012"/>
<path d="M2.5 13.5H16.5C17.0304 13.5 17.5391 13.2893 17.9142 12.9142C18.2893 12.5391 18.5 12.0304 18.5 11.5V9.5H0.5V11.5C0.5 12.0304 0.710714 12.5391 1.08579 12.9142C1.46086 13.2893 1.96957 13.5 2.5 13.5Z" fill="#F2A800"/>
<path d="M0.5 4.5H18.5V9.5H0.5V4.5Z" fill="#0033A0"/>
</svg>
