<svg width="172" height="768" viewBox="0 0 172 768" fill="none" xmlns="http://www.w3.org/2000/svg">
<path d="M-116.059 761.959L-51.4397 764.05C-51.0259 765.698 -49.6985 767.13 -47.8458 767.473C-45.3933 767.9 -43.0216 766.305 -42.605 763.879C-42.2888 762.119 -43.0654 760.373 -44.4356 759.391L-12.9787 681.469C-10.5795 681.805 -8.37219 680.243 -7.88298 677.837C-7.46633 675.411 -9.09027 673.054 -11.5427 672.627C-12.2151 672.524 -12.9259 672.564 -13.5107 672.715L-41.1324 606.568C-40.1035 605.921 -39.2879 604.909 -39.087 603.579C-38.7708 601.818 -39.4941 600.164 -40.8643 599.181L5.95509 506.307C6.10024 506.346 6.31794 506.405 6.46308 506.444C8.91554 506.87 11.2872 505.276 11.7039 502.85C11.9005 501.826 11.7149 500.777 11.2348 499.956L57.1474 466.2C57.7578 466.825 58.5709 467.273 59.5335 467.454C61.986 467.881 64.3577 466.287 64.7744 463.861C64.9901 462.765 64.7321 461.696 64.1986 460.785L136.933 402.69C137.563 403.243 138.303 403.672 139.193 403.833C141.646 404.26 144.018 402.666 144.434 400.24C144.851 397.814 143.227 395.457 140.775 395.03C139.812 394.849 138.918 394.994 138.13 395.321L104.661 343.447C105.381 342.794 105.921 341.939 106.137 340.844C106.549 338.724 105.376 336.718 103.421 335.887L140.351 193.997L139.698 193.822C142.15 194.249 144.522 192.654 144.939 190.229C145.355 187.803 143.731 185.445 141.279 185.019C140.752 184.955 140.224 184.89 139.731 184.989L122.571 140.176C123.673 139.549 124.508 138.465 124.708 137.135C124.963 135.896 124.598 134.645 123.919 133.694L164.189 94.5812C164.712 94.9519 165.399 95.2899 166.072 95.3931C168.524 95.8196 170.896 94.2252 171.313 91.7994C171.729 89.3736 170.105 87.0162 167.653 86.5897C166.545 86.3698 165.467 86.6192 164.549 87.1422L121.702 33.9857C122.257 33.3656 122.686 32.6347 122.844 31.7544C123.261 29.3286 121.637 26.9712 119.185 26.5447C116.969 26.1048 114.747 27.4317 114.097 29.5645L-26.5297 5.18588C-26.4077 2.98871 -27.9634 0.957133 -30.2707 0.569565C-32.7231 0.143105 -35.0948 1.73748 -35.5115 4.16328C-35.9282 6.58908 -34.3042 8.94652 -31.8517 9.37298C-31.1794 9.47624 -30.5604 9.48832 -29.9755 9.33747L-3.85576 70.9297C-4.95726 71.5572 -5.71947 72.6602 -5.99291 73.9709C-6.42447 76.1621 -5.05238 78.2982 -2.98631 79.0056L-18.1771 161.823C-20.4162 161.762 -22.3673 163.238 -22.7989 165.429C-23.1343 167.262 -22.2851 169.027 -20.7698 170.048L-48.213 230.667C-48.3581 230.629 -48.5033 230.59 -48.6484 230.551C-51.1009 230.124 -53.4726 231.719 -53.8892 234.145C-54.3208 236.336 -53.0212 238.452 -50.9552 239.16L-173.319 372.459C-173.842 372.089 -174.404 371.861 -175.003 371.778C-177.456 371.351 -179.828 372.945 -180.244 375.371C-180.661 377.797 -179.037 380.154 -176.584 380.581C-175.694 380.743 -174.8 380.598 -174.012 380.271L-94.5396 508.061C-95.3316 508.694 -95.891 509.621 -96.0875 510.645C-96.2649 511.597 -96.1327 512.555 -95.6718 513.447L-148.458 549.053C-149.121 548.337 -149.935 547.888 -150.97 547.688C-153.422 547.261 -155.794 548.855 -156.211 551.281C-156.508 552.97 -155.857 554.606 -154.559 555.568L-184.033 605.186C-184.323 605.109 -184.594 604.959 -184.903 604.953C-187.356 604.527 -189.728 606.121 -190.144 608.547C-190.561 610.973 -188.937 613.33 -186.485 613.756C-186.339 613.795 -186.194 613.834 -186.03 613.801L-178.24 717.386C-179.975 717.767 -181.342 719.093 -181.677 720.925C-182.094 723.351 -180.47 725.708 -178.017 726.135C-176.455 726.4 -174.918 725.889 -173.919 724.772L-124.392 758.804C-124.652 759.196 -124.787 759.698 -124.902 760.128C-125.319 762.554 -123.695 764.912 -121.242 765.338C-118.901 765.889 -116.548 764.366 -116.059 761.959ZM97.1358 339.893L88.6745 340.702L48.6264 295.677L97.8043 337.688C97.5246 338.152 97.2983 338.706 97.1445 339.28C97.1786 339.443 97.1209 339.658 97.1358 339.893ZM136.153 188.182L90.1063 184.994C90.0126 183.892 89.4983 182.909 88.762 182.173L107.858 155.61L137.142 186.525C136.717 186.949 136.399 187.556 136.153 188.182ZM162.418 91.0309L120.291 97.8894L119.262 35.2543C119.828 35.1752 120.34 35.0049 120.799 34.7434L163.646 87.8998C163.091 88.52 162.662 89.2508 162.504 90.1311C162.408 90.4899 162.423 90.7245 162.418 91.0309ZM-148.674 578.598L-133.738 684.252C-133.995 684.337 -134.159 684.37 -134.415 684.455L-182.753 612.603C-182.034 611.95 -181.494 611.095 -181.297 610.072C-181.062 608.904 -181.373 607.744 -181.926 606.904L-148.674 578.598ZM-15.941 679.753L-82.555 731.261L-128.679 690.913C-128.399 690.45 -128.173 689.895 -128.019 689.321C-127.961 689.106 -127.995 688.943 -127.938 688.728L-16.5279 678.75C-16.4063 679.167 -16.1736 679.46 -15.941 679.753ZM-133.26 692.915C-132.969 692.993 -132.66 692.999 -132.35 693.005L-121.563 755.794L-145.972 699.428L-135.592 691.752C-134.963 692.305 -134.15 692.753 -133.26 692.915ZM-146.573 698.19L-182.342 615.712L-135.555 685.226C-136.274 685.879 -136.815 686.734 -137.011 687.758C-137.208 688.781 -137.022 689.831 -136.561 690.723L-146.573 698.19ZM-147.457 577.54L-136.563 568.233C-136.006 568.767 -135.247 569.124 -134.429 569.267C-134.357 569.286 -134.284 569.306 -134.284 569.306L-133.274 678.455L-147.457 577.54ZM-147.673 576.022L-150.438 556.442C-149.669 556.187 -149.027 555.821 -148.399 555.22L-137.598 562.804C-137.786 563.215 -137.954 563.555 -137.997 564.005C-138.232 565.172 -137.921 566.332 -137.368 567.172L-147.673 576.022ZM-147.672 550.186L-94.8865 514.581C-94.8865 514.581 -94.8865 514.581 -94.8139 514.6L-131.343 560.943C-131.74 560.683 -132.248 560.547 -132.756 560.411C-134.319 560.146 -135.856 560.657 -136.836 561.702L-147.637 554.117C-147.449 553.706 -147.28 553.367 -147.237 552.917C-147.133 551.945 -147.265 550.987 -147.672 550.186ZM56.5336 460.653L-11.5218 431.038C-11.4834 430.894 -11.4642 430.822 -11.4257 430.679C-11.3296 430.32 -11.3253 430.014 -11.3743 429.616L47.6466 418.057L58.5617 458.89C57.7548 459.289 57.0546 459.87 56.5336 460.653ZM115.362 34.1325L65.5737 103.835C65.1575 103.647 64.8139 103.478 64.3593 103.433C63.1789 103.193 61.9366 103.476 60.9995 104.07L25.5949 65.5186L114.558 33.0711C114.771 33.4359 115.057 33.8201 115.362 34.1325ZM-28.4727 8.66365L23.2534 64.9681L2.56881 72.4973C1.94788 71.3314 0.776186 70.4792 -0.568521 70.2726C-1.24087 70.1694 -1.85986 70.1573 -2.53654 70.3604L-28.6563 8.76824C-28.5645 8.71595 -28.4919 8.73539 -28.4727 8.66365ZM1.92968 77.7854C2.0407 77.6614 2.2435 77.485 2.37374 77.2893L59.2915 106.381C59.2338 106.596 59.1761 106.811 59.1185 107.027C58.9027 108.122 59.1608 109.191 59.6942 110.103L38.9443 124.842L1.92968 77.7854ZM38.6089 126.675L82.2774 182.281C81.8333 182.777 81.4619 183.293 81.2888 183.939L-13.6335 166.347C-13.5864 165.591 -13.7763 164.848 -14.1305 164.138L38.6089 126.675ZM-90.7934 507.142C-90.8659 507.123 -90.9385 507.103 -91.0111 507.084L-93.4919 400.231C-92.8344 400.1 -92.2303 399.877 -91.6603 399.492L-39.4579 454.309L-89.1094 507.824C-89.5597 507.473 -90.1936 507.226 -90.7934 507.142ZM29.7684 342.834C28.477 342.718 27.2688 343.163 26.3466 343.993L4.5952 312.252L38.1211 291.632C38.5863 292.218 39.1626 292.68 39.8498 293.017L29.7684 342.834ZM-89.8836 394.893L-24.8881 370.325L-17.1261 425.538C-18.2233 425.859 -19.1071 426.545 -19.6665 427.471L-20.9876 426.887L-89.8947 396.966C-89.8562 396.822 -89.837 396.751 -89.7985 396.607C-89.7173 396.014 -89.7087 395.401 -89.8836 394.893ZM-23.5881 369.828L26.6869 350.85C26.8854 350.981 27.0839 351.111 27.2824 351.241L-14.2872 425.683C-14.5049 425.625 -14.7952 425.547 -15.0855 425.469C-15.3032 425.411 -15.6127 425.405 -15.8496 425.418L-23.5881 369.828ZM-23.7693 368.472L-28.2377 336.672C-27.0487 336.298 -26.0346 335.417 -25.4902 334.255L-5.48449 340L25.1504 348.747C25.2913 349.092 25.5046 349.457 25.718 349.822L-23.7693 368.472ZM3.47445 312.951L25.5118 345.076C25.2513 345.468 25.1168 345.97 24.9822 346.472C24.9053 346.759 24.901 347.066 24.9159 347.3L-4.8482 338.787L-25.0716 332.983C-24.9327 332.175 -25.1033 331.36 -25.3849 330.67L3.47445 312.951ZM-19.3386 432.634L-38.4973 453.336L-90.6463 398.61C-90.5353 398.486 -90.4243 398.362 -90.3858 398.218L-20.1384 428.652C-20.1768 428.795 -20.1961 428.867 -20.2345 429.011C-20.5997 430.374 -20.1624 431.644 -19.3386 432.634ZM-90.6603 393.147L-32.2525 335.98C-31.7296 336.351 -31.115 336.67 -30.4426 336.773C-30.1524 336.851 -29.8428 336.857 -29.6059 336.843L-25.1227 368.878L-90.4469 393.512C-90.4277 393.44 -90.5536 393.329 -90.6603 393.147ZM-28.789 327.989C-29.0793 327.911 -29.3888 327.905 -29.6983 327.899L-47.6573 239.044C-47.493 239.011 -47.4012 238.959 -47.2176 238.854L2.78095 311.766L-26.0784 329.484C-26.7421 328.768 -27.6812 328.209 -28.789 327.989ZM-46.1694 238.135C-45.9858 238.031 -45.8556 237.835 -45.7446 237.711L37.4901 287.31C37.4132 287.597 37.3555 287.812 37.2786 288.099C37.1397 288.908 37.2378 289.703 37.5002 290.466L3.88247 311.138L-46.1694 238.135ZM3.07872 73.7874L24.2031 66.0684L59.9662 105.024C59.947 105.096 59.8552 105.148 59.836 105.22L46.0227 98.1351L2.91823 76.128C2.9759 75.9128 3.03357 75.6976 3.09124 75.4823C3.24502 74.9084 3.18109 74.2761 3.07872 73.7874ZM39.6762 125.884L60.518 111.092C61.1476 111.646 61.8881 112.075 62.7782 112.236C63.2328 112.281 63.6875 112.326 64.1613 112.299L83.7845 181.301C83.6927 181.353 83.5284 181.386 83.4174 181.51L39.6762 125.884ZM44.2064 292.724L87.0694 340.887L33.8362 346.23C33.5098 344.836 32.4876 343.716 31.0747 343.184L41.1368 293.439C42.2105 293.496 43.2885 293.247 44.2064 292.724ZM88.1449 342.097L136.565 396.516C136.454 396.64 136.343 396.765 136.232 396.889L33.8208 348.61C33.8593 348.466 33.9169 348.251 33.9554 348.108C34.013 347.892 33.9981 347.658 34.0366 347.514L88.1449 342.097ZM28.642 351.682C29.0774 351.799 29.5513 351.772 29.9525 351.725L47.3544 416.825L-11.5747 428.332C-11.9097 427.55 -12.4091 426.801 -13.0579 426.32L28.642 351.682C28.5694 351.662 28.5694 351.662 28.642 351.682ZM-16.6665 434.273C-16.1393 434.337 -15.6121 434.401 -15.119 434.303L5.19664 498.108C4.94048 498.193 4.73768 498.369 4.53487 498.545L-37.6735 454.326L-18.4231 433.571C-17.881 433.87 -17.3197 434.098 -16.6665 434.273ZM2.79036 502.153L-87.1802 510.494C-87.3167 509.842 -87.6368 509.295 -88.0295 508.729L-38.4698 455.266L3.66597 499.466C3.29448 499.981 3.06812 500.536 2.96768 501.201C2.799 501.54 2.79468 501.847 2.79036 502.153ZM-93.4188 507.361L-172.892 379.571C-172.302 379.114 -171.912 378.527 -171.647 377.829L-98.887 395.402C-99.1009 397.652 -97.4918 399.775 -95.2037 400.234C-95.1312 400.253 -95.0586 400.273 -94.986 400.292L-92.5052 507.145C-92.7421 507.158 -93.0709 507.224 -93.4188 507.361ZM-171.341 375.527L-81.7111 348.718L-93.7678 391.392C-95.8041 391.153 -97.8235 392.304 -98.541 394.111L-171.301 376.537C-171.297 376.231 -171.273 375.853 -171.341 375.527ZM-80.1742 348.207L-33.6674 334.294C-33.5074 334.568 -33.3473 334.841 -33.1873 335.115L-91.5758 392.21C-91.8277 391.988 -92.0987 391.839 -92.4423 391.67L-80.1742 348.207ZM-79.6979 346.72L-49.3543 239.281C-49.2092 239.32 -49.1174 239.268 -48.9722 239.307L-31.0132 328.162C-32.5501 328.673 -33.7328 329.894 -34.0298 331.583C-34.0918 332.104 -34.1346 332.554 -34.0322 333.043L-79.6979 346.72ZM-44.8176 233.961L5.12009 215.662L38.9184 285.463C38.6238 285.692 38.3292 285.92 38.1605 286.26L-45.0016 236.68C-44.8521 236.412 -44.7752 236.125 -44.7517 235.747C-44.6513 235.082 -44.7152 234.45 -44.8176 233.961ZM6.34754 215.145L81.5657 187.55C81.9391 188.188 82.4769 188.794 83.1449 189.203L82.2395 191.421L42.4276 284.558C41.6101 284.416 40.8076 284.508 40.0391 284.764L6.34754 215.145ZM5.81839 213.927L-15.5039 169.844C-14.7312 169.283 -14.0651 168.538 -13.7426 167.625L81.1798 185.217C81.1562 185.595 81.2052 185.992 81.2735 186.318L5.81839 213.927ZM-16.6488 161.925L-1.45802 79.1076C-0.60208 79.1062 0.219747 78.942 0.95408 78.5236L37.8961 125.561L-14.8432 163.024C-15.3469 162.582 -16.0149 162.172 -16.6488 161.925ZM-26.6196 6.39208L114.008 30.7707C113.984 31.1488 114.052 31.4747 114.121 31.8005L24.626 64.4901L-27.4587 7.78198C-27.1256 7.40987 -26.8459 6.94656 -26.6196 6.39208ZM118.976 98.1522L67.8316 106.439C67.6225 105.768 67.1765 105.11 66.6195 104.577L116.408 34.8741C116.824 35.0625 117.168 35.2314 117.623 35.2764C117.695 35.2958 117.768 35.3153 117.84 35.3347L118.976 98.1522ZM119.012 99.469L119.555 131.986C118.259 132.177 117.211 132.896 116.449 133.999L67.9806 108.786L67.9998 108.714C68.0767 108.427 68.081 108.121 68.0853 107.815L119.012 99.469ZM117.493 139.969L107.724 153.498L67.0987 110.626C67.229 110.43 67.3592 110.234 67.5086 109.967L115.904 135.16C115.866 135.304 115.827 135.447 115.789 135.591C115.492 137.28 116.215 138.934 117.493 139.969ZM106.961 154.601L87.6437 181.412C87.2275 181.224 86.8839 181.055 86.4292 181.01C85.9938 180.893 85.52 180.92 85.0461 180.947L65.6065 111.841C65.7901 111.736 65.9736 111.632 66.1572 111.527L106.961 154.601ZM44.1501 285.096C44.0242 284.986 43.879 284.947 43.8064 284.928L74.5964 212.979L84.5579 189.736C84.6305 189.755 84.7756 189.794 84.8482 189.813C87.3006 190.24 89.5805 188.698 90.0505 186.363L135.952 189.512C135.939 190.432 136.255 191.285 136.755 192.034L44.1501 285.096ZM100.804 344.49C101.767 344.671 102.661 344.526 103.449 344.199L134.672 392.549L89.6583 341.965L97.1719 341.21C97.6775 342.806 99.0241 344.167 100.804 344.49ZM135.429 399.595L48.6693 416.563L31.2141 351.371C32.0018 351.044 32.702 350.463 33.2037 349.752L135.615 398.03C135.577 398.174 135.519 398.389 135.48 398.533C135.457 398.911 135.433 399.289 135.429 399.595ZM136.037 401.68L63.4666 459.743C62.8371 459.189 62.0965 458.76 61.2064 458.599C60.771 458.482 60.2971 458.509 59.8958 458.555L49.0341 417.814L135.702 400.899C135.789 401.153 135.949 401.426 136.037 401.68ZM56.4154 465.158L10.5029 498.914C9.8925 498.289 9.07936 497.841 8.11673 497.66C7.51695 497.576 6.9705 497.583 6.47741 497.682L-13.8383 433.877C-13.1231 433.53 -12.4229 432.949 -11.9938 432.218L56.0617 461.834C56.0233 461.977 56.004 462.049 55.9656 462.192C55.7498 463.288 55.9545 464.266 56.4154 465.158ZM-76.4892 538.81L-88.9762 515.165C-88.0924 514.479 -87.3686 513.519 -87.2062 512.333C-87.1485 512.117 -87.1826 511.954 -87.1249 511.739L2.9182 503.418L2.97155 503.509L-76.4892 538.81ZM-77.7166 539.327L-129.798 562.434C-129.958 562.16 -130.137 561.958 -130.317 561.757L-93.8599 515.394C-93.463 515.654 -92.955 515.79 -92.447 515.926C-91.6295 516.068 -90.8269 515.976 -90.1502 515.773L-77.7166 539.327ZM-77.0957 540.493L-46.2176 599.131C-46.6958 599.464 -47.1399 599.96 -47.5114 600.476L-52.128 598.547L-129.284 566.032C-129.265 565.96 -129.227 565.816 -129.208 565.745C-129.088 565.008 -129.152 564.376 -129.288 563.724L-77.0957 540.493ZM-47.2177 605.476L-67.6739 625.215L-129.814 567.428C-129.795 567.356 -129.703 567.304 -129.684 567.232L-52.237 599.825L-47.9107 601.676C-47.9492 601.82 -47.9684 601.891 -48.0068 602.035C-48.3336 603.255 -47.9689 604.506 -47.2177 605.476ZM-68.6154 626.116L-129.651 684.962C-130.174 684.592 -130.861 684.254 -131.606 684.131C-131.679 684.112 -131.751 684.092 -131.751 684.092L-132.79 569.244C-131.987 569.152 -131.272 568.805 -130.683 568.348L-68.6154 626.116ZM-67.6998 627.054L-16.3265 674.805C-16.587 675.197 -16.7216 675.699 -16.8561 676.201C-16.9715 676.632 -16.9224 677.029 -16.8926 677.499L-128.066 687.463C-128.221 686.883 -128.469 686.356 -128.808 685.88L-67.6998 627.054ZM-50.122 759.712L-81.4943 732.237L-14.9529 680.71C-14.7545 680.84 -14.4834 680.989 -14.2849 681.119L-45.665 758.754C-45.8827 758.695 -46.1004 758.637 -46.3181 758.578C-47.7161 758.281 -49.0887 758.759 -50.122 759.712ZM-83.569 732.142L-117.115 758.063C-117.779 757.347 -118.645 756.807 -119.681 756.606C-119.826 756.567 -119.898 756.548 -120.063 756.581L-130.982 692.833C-130.397 692.682 -129.919 692.349 -129.441 692.016L-83.569 732.142ZM-173.249 723.722C-173.08 723.383 -172.964 722.952 -172.849 722.522C-172.653 721.498 -172.838 720.448 -173.299 719.556L-147.02 700.147L-122.417 756.95C-122.857 757.139 -123.243 757.42 -123.576 757.792L-173.249 723.722ZM-184.753 613.682C-184.681 613.701 -184.662 613.63 -184.589 613.649L-147.641 698.981L-174.123 718.566C-174.733 717.942 -175.546 717.493 -176.509 717.312C-176.654 717.273 -176.799 717.234 -176.964 717.267L-184.753 613.682ZM-153.422 556.258C-153.131 556.335 -152.86 556.485 -152.551 556.491C-152.333 556.549 -152.024 556.555 -151.787 556.542L-148.87 577.008L-182.75 605.915C-182.822 605.895 -182.803 605.823 -182.876 605.804L-153.422 556.258ZM-51.4295 241.801L-81.2348 347.23L-171.706 374.276C-171.847 373.93 -172.079 373.637 -172.312 373.344L-51.4295 241.801ZM-19.3376 170.509C-19.1925 170.548 -19.0473 170.587 -18.9022 170.626C-18.1573 170.748 -17.4465 170.708 -16.7698 170.505L4.51839 214.424L-45.2549 232.69C-45.6283 232.052 -46.0936 231.466 -46.7616 231.056L-19.3376 170.509ZM122.985 132.828C122.462 132.458 121.774 132.12 121.102 132.016C121.03 131.997 120.957 131.977 120.884 131.958L120.327 99.2062L162.619 92.3149C162.74 92.732 163.007 93.1879 163.293 93.5721L122.985 132.828ZM138.504 185.506C138.412 185.558 138.32 185.61 138.228 185.662L108.692 154.527L118.723 140.606C119.013 140.684 119.231 140.742 119.521 140.82C120.193 140.923 120.812 140.935 121.397 140.784L138.504 185.506ZM102.095 335.609C100.804 335.493 99.6147 335.867 98.6199 336.677L45.5193 291.307C45.799 290.844 46.0254 290.289 46.1792 289.715C46.3993 288.313 45.9812 286.971 45.1574 285.981L137.67 192.971C138.12 193.323 138.59 193.602 139.098 193.738L139.025 193.719L102.095 335.609ZM-42.0937 598.544C-42.3114 598.486 -42.5291 598.428 -42.7468 598.369C-43.4917 598.247 -44.2751 598.267 -44.971 598.542L-75.7957 539.995L3.73763 504.714C4.02359 505.098 4.45467 505.521 4.85164 505.781L-42.0937 598.544ZM-14.7382 673.232C-15.0136 673.389 -15.2164 673.565 -15.4192 673.741L-66.6666 626.1L-46.3021 606.413C-45.7793 606.784 -45.1646 607.102 -44.4197 607.225C-43.7473 607.328 -43.0365 607.288 -42.4516 607.137L-14.7382 673.232ZM-51.5291 762.642L-116.003 760.59C-116.033 760.121 -116.208 759.613 -116.402 759.176L-82.5617 733.027L-50.9375 760.724C-51.2172 761.187 -51.4051 761.598 -51.4671 762.12C-51.5248 762.335 -51.5632 762.479 -51.5291 762.642Z" fill="url(#paint0_linear_24_3807)" fill-opacity="0.4"/>
<defs>
<linearGradient id="paint0_linear_24_3807" x1="135.782" y1="432.6" x2="-173.399" y2="349.755" gradientUnits="userSpaceOnUse">
<stop stop-color="#D8CC88"/>
<stop offset="1" stop-color="#7C633E"/>
</linearGradient>
</defs>
</svg>
