<svg width="320" height="624" viewBox="0 0 320 624" fill="none" xmlns="http://www.w3.org/2000/svg">
<path d="M-298.484 585.758L-332.604 530.841C-334.238 531.307 -336.142 530.873 -337.365 529.44C-338.961 527.529 -338.766 524.678 -336.874 523.104C-335.507 521.95 -333.607 521.75 -332.071 522.445L-280.318 456.242C-281.808 454.332 -281.559 451.64 -279.72 450.013C-277.827 448.439 -274.974 448.667 -273.378 450.578C-272.952 451.108 -272.632 451.744 -272.47 452.326L-201.374 443.174C-201.329 441.959 -200.86 440.747 -199.808 439.908C-198.442 438.753 -196.647 438.553 -195.111 439.248L-138.09 352.264C-138.196 352.158 -138.355 351.999 -138.462 351.892C-140.057 349.982 -139.862 347.131 -137.97 345.557C-137.182 344.875 -136.18 344.511 -135.229 344.516L-128.952 287.877C-129.798 287.661 -130.593 287.181 -131.231 286.437C-132.827 284.527 -132.632 281.676 -130.74 280.102C-129.899 279.367 -128.844 279.056 -127.788 279.062L-113.843 187.025C-114.637 186.756 -115.379 186.329 -115.964 185.639C-117.56 183.729 -117.365 180.878 -115.472 179.304C-113.58 177.73 -110.726 177.958 -109.131 179.868C-108.492 180.612 -108.171 181.459 -108.06 182.304L-46.402 185.352C-46.1962 184.402 -45.726 183.507 -44.8851 182.773C-43.2558 181.356 -40.9316 181.369 -39.2341 182.646L65.1808 79.7191L65.6589 80.1972C64.0634 78.2865 64.2583 75.4354 66.1508 73.8616C68.0433 72.2879 70.8968 72.5156 72.4924 74.4262C72.8117 74.8506 73.1311 75.275 73.2923 75.7513L120.681 68.206C120.674 66.9382 121.195 65.6736 122.246 64.8345C123.192 63.9948 124.458 63.6851 125.621 63.7974L139.359 9.36634C138.776 9.0989 138.14 8.67268 137.714 8.14204C136.119 6.23138 136.313 3.38024 138.206 1.8065C140.098 0.232773 142.952 0.460428 144.548 2.3711C145.292 3.22048 145.615 4.27873 145.621 5.33516L213.079 15.8637C213.339 15.0729 213.757 14.3358 214.441 13.7587C216.333 12.185 219.187 12.4126 220.782 14.3233C222.271 16.0221 222.233 18.61 220.71 20.2387L312.137 129.836C313.978 128.632 316.516 128.963 318.005 130.768C319.6 132.678 319.406 135.53 317.513 137.103C315.621 138.677 312.767 138.449 311.171 136.539C310.746 136.008 310.426 135.478 310.264 134.896L243.864 143.072C243.871 144.34 243.297 145.551 242.299 146.443C240.617 147.913 238.081 147.792 236.435 146.357L172.308 200.921C173.481 202.83 173.178 205.257 171.496 206.727C170.077 207.934 168.124 208.081 166.482 207.279L127.705 261.355C127.812 261.461 127.918 261.568 128.024 261.674C129.62 263.585 129.425 266.436 127.532 268.009C125.851 269.479 123.368 269.412 121.722 267.976L67.4632 440.596C68.0458 440.864 68.5233 441.236 68.8958 441.714C70.4913 443.625 70.2964 446.476 68.4039 448.049C66.5114 449.623 63.6579 449.396 62.0623 447.485C61.4773 446.795 61.1556 445.948 61.0451 445.102L-89.3609 440.172C-89.5137 441.175 -90.0364 442.122 -90.8248 442.804C-91.5607 443.434 -92.4565 443.799 -93.4598 443.846L-97.9019 507.362C-96.9499 507.579 -96.1548 508.059 -95.4636 508.855C-93.868 510.766 -94.063 513.617 -95.9554 515.191C-97.2696 516.293 -99.0112 516.547 -100.494 515.904L-128.728 566.238C-128.515 566.45 -128.25 566.61 -128.09 566.875C-126.495 568.786 -126.69 571.637 -128.582 573.211C-130.474 574.785 -133.328 574.557 -134.924 572.646C-135.03 572.54 -135.136 572.434 -135.19 572.275L-228.792 617.321C-228.254 619.015 -228.719 620.861 -230.138 622.067C-232.03 623.641 -234.884 623.413 -236.48 621.503C-237.49 620.282 -237.816 618.696 -237.349 617.272L-291.585 591.396C-291.794 591.818 -292.161 592.185 -292.477 592.5C-294.369 594.074 -297.223 593.846 -298.818 591.936C-300.466 590.183 -300.323 587.385 -298.484 585.758ZM-39.5611 190.092L-36.0306 197.824L22.9861 209.994L-37.9861 188.411C-38.2475 188.885 -38.6145 189.358 -39.0347 189.778C-39.1929 189.83 -39.3504 189.988 -39.5611 190.092ZM72.3157 80.4467L98.1001 118.73C99.101 118.261 100.21 118.214 101.215 118.484L114.671 88.6655L73.2567 78.7618C73.1016 79.342 72.7352 79.9209 72.3157 80.4467ZM143.319 9.12497L158.443 49.0378L213.201 18.611C212.986 18.0816 212.878 17.5528 212.875 17.0246L145.416 6.49602C145.157 7.28683 144.738 8.02391 144.055 8.601C143.792 8.86359 143.582 8.96802 143.319 9.12497ZM-123.381 522.323L-222.347 562.214C-222.293 562.479 -222.239 562.638 -222.185 562.902L-135.791 568.838C-135.585 567.889 -135.114 566.994 -134.326 566.311C-133.433 565.524 -132.272 565.214 -131.269 565.273L-123.381 522.323ZM-277.35 457.95L-288.65 541.393L-230.646 561.163C-230.385 560.689 -230.018 560.216 -229.597 559.796C-229.44 559.638 -229.282 559.586 -229.124 559.429L-276.188 457.956C-276.61 458.059 -276.98 458.005 -277.35 457.95ZM-230.089 566.132C-230.302 565.919 -230.462 565.654 -230.622 565.389L-290.393 587.442L-229.374 580.397L-227.915 567.57C-228.709 567.301 -229.504 566.822 -230.089 566.132ZM-228.001 580.299L-138.689 570.037L-222.283 564.275C-222.488 565.224 -222.959 566.12 -223.747 566.802C-224.536 567.484 -225.537 567.848 -226.54 567.895L-228.001 580.299ZM-123.073 520.74L-120.46 506.652C-121.201 506.436 -121.89 505.957 -122.422 505.32C-122.475 505.267 -122.528 505.214 -122.528 505.214L-217.56 558.914L-123.073 520.74ZM-121.65 520.167L-103.311 512.772C-103.474 511.978 -103.479 511.239 -103.272 510.395L-115.241 504.833C-115.503 505.201 -115.713 505.517 -116.081 505.779C-116.974 506.566 -118.135 506.876 -119.139 506.818L-121.65 520.167ZM-99.2758 507.249L-94.8338 443.732C-94.8338 443.732 -94.8337 443.732 -94.8869 443.679L-116.757 498.486C-116.333 498.7 -115.961 499.072 -115.589 499.443C-114.579 500.664 -114.253 502.251 -114.667 503.622L-102.698 509.183C-102.436 508.815 -102.227 508.5 -101.858 508.238C-101.069 507.661 -100.174 507.296 -99.2758 507.249ZM-123.841 285.635L-64.1657 329.765C-64.0607 329.66 -64.0082 329.607 -63.9031 329.502C-63.6406 329.24 -63.3774 329.083 -63.0086 328.926L-82.5086 272.033L-123.328 282.997C-123.27 283.895 -123.423 284.792 -123.841 285.635ZM216.122 21.4272L180.652 99.3969C181.023 99.6631 181.341 99.8762 181.608 100.247C182.405 101.15 182.782 102.367 182.735 103.476L233.825 114.861L217.443 21.5933C217.021 21.5909 216.545 21.5353 216.122 21.4272ZM310.096 133.258L235.472 116.614L239.294 138.292C240.614 138.247 241.938 138.835 242.789 139.896C243.215 140.427 243.535 140.957 243.697 141.645L310.097 133.469C310.097 133.363 310.044 133.31 310.096 133.258ZM235.034 141.489C235.086 141.331 235.137 141.067 235.241 140.857L181.589 106.11C181.431 106.268 181.273 106.425 181.116 106.583C180.275 107.318 179.22 107.629 178.164 107.622L175.774 132.962L235.034 141.489ZM174.355 134.169L104.364 124.154C104.156 124.787 103.896 125.366 103.423 125.839L166.119 199.248C166.75 198.829 167.488 198.622 168.28 198.574L174.355 134.169ZM-90.4386 436.468C-90.3855 436.521 -90.3324 436.574 -90.2792 436.628L3.49839 385.35C3.28346 384.715 3.17419 384.08 3.22306 383.394L-70.3513 365.594L-91.8712 435.351C-91.3418 435.565 -90.8111 435.991 -90.4386 436.468ZM-8.4239 249.904C-7.67836 250.965 -7.4598 252.234 -7.71692 253.447L30.6472 256.414L31.7419 217.07C31.0018 216.96 30.3136 216.692 29.6773 216.266L-8.4239 249.904ZM6.31742 379.556L-4.90419 310.984L-56.6004 331.868C-56.33 332.979 -56.4821 334.087 -57.0048 335.035L-55.8379 335.887L4.52754 380.602C4.63256 380.497 4.68509 380.444 4.79013 380.339C5.26341 379.972 5.7898 379.658 6.31742 379.556ZM-5.12337 309.61L-13.826 256.581C-14.0379 256.475 -14.2498 256.368 -14.4617 256.261L-58.1459 329.482C-57.9865 329.642 -57.7741 329.854 -57.5616 330.067C-57.4022 330.226 -57.2422 330.491 -57.1354 330.703L-5.12337 309.61ZM-3.85866 309.089L25.9154 297.058C25.6443 295.842 25.9009 294.523 26.6343 293.471L11.6562 279.018L-11.2363 256.86C-11.6057 256.911 -12.0283 256.909 -12.4508 256.906L-3.85866 309.089ZM30.602 257.734L-8.23786 254.712C-8.44673 255.133 -8.81435 255.501 -9.18197 255.869C-9.39204 256.079 -9.65526 256.236 -9.86594 256.34L12.3891 277.86L27.5265 292.472C28.1574 291.948 28.9482 291.688 29.6871 291.587L30.602 257.734ZM-61.6398 337.332L-69.9891 364.275L3.47959 382.075C3.53148 381.917 3.58343 381.758 3.68847 381.653L-57.7914 336.034C-57.8965 336.139 -57.949 336.192 -58.054 336.297C-59.0518 337.295 -60.3709 337.551 -61.6398 337.332ZM8.21779 379.355L28.5216 300.189C27.939 299.922 27.3559 299.549 26.9303 299.018C26.7178 298.806 26.5578 298.541 26.4509 298.329L-3.53385 310.464L7.79519 379.353C7.84771 379.3 8.0065 379.354 8.21779 379.355ZM33.7106 293.194C33.9231 293.407 34.083 293.672 34.243 293.937L120.173 265.062C120.12 264.903 120.119 264.798 120.118 264.586L31.9754 257.742L31.0604 291.594C32.0124 291.811 32.9662 292.345 33.7106 293.194ZM120.216 263.319C120.215 263.108 120.32 262.897 120.371 262.739L35.7998 215.456C35.5897 215.666 35.4322 215.823 35.2221 216.033C34.5912 216.558 33.8536 216.871 33.0622 217.024L31.9681 256.475L120.216 263.319ZM237.922 138.495L234.044 116.341L182.426 104.847C182.374 104.9 182.374 105.006 182.322 105.058L195.364 113.479L235.975 139.805C236.132 139.647 236.29 139.489 236.448 139.332C236.868 138.912 237.447 138.651 237.922 138.495ZM174.506 132.849L176.895 107.404C176.101 107.135 175.359 106.708 174.774 106.018C174.508 105.647 174.242 105.276 174.028 104.852L104.459 122.359C104.46 122.464 104.514 122.623 104.462 122.781L174.506 132.849ZM27.7533 212.346L-35.3883 199.307L-13.3994 248.08C-12.0285 247.665 -10.5477 247.991 -9.38015 248.948L28.6686 215.362C28.0824 214.461 27.7594 213.402 27.7533 212.346ZM-36.9747 198.981L-108.313 184.257C-108.365 184.415 -108.417 184.574 -108.469 184.732L-15.4525 249.283C-15.3475 249.178 -15.1899 249.02 -15.0849 248.915C-14.9273 248.758 -14.7166 248.653 -14.6116 248.548L-36.9747 198.981ZM-15.5236 255.304C-15.8423 254.985 -16.0561 254.562 -16.2166 254.191L-81.2958 271.67L-61.7964 328.458C-60.9518 328.357 -60.0536 328.415 -59.3123 328.736L-15.5236 255.304C-15.4704 255.357 -15.4704 255.357 -15.5236 255.304ZM-64.395 335.838C-64.7144 335.413 -65.0337 334.989 -65.1949 334.513L-130.609 348.821C-130.555 349.086 -130.606 349.349 -130.658 349.613L-71.2581 364.057L-62.9093 337.008C-63.4394 336.688 -63.9169 336.316 -64.395 335.838ZM-132.91 352.928L-95.1479 435.015C-94.5152 434.807 -93.8814 434.811 -93.1944 434.868L-71.674 365.217L-131.02 350.826C-131.281 351.405 -131.648 351.879 -132.174 352.298C-132.383 352.614 -132.647 352.771 -132.91 352.928ZM-89.3157 438.852L61.0903 443.782C61.1917 443.043 61.505 442.411 61.9771 441.833L10.3779 387.608C8.53672 388.918 5.89383 388.585 4.35202 386.834C4.29889 386.78 4.24577 386.727 4.19264 386.674L-89.585 437.952C-89.4781 438.164 -89.3707 438.482 -89.3157 438.852ZM63.8176 440.417L42.2201 349.39L11.2917 381.169C12.516 382.813 12.5294 385.137 11.3233 386.662L62.9224 440.887C63.1856 440.73 63.5013 440.521 63.8176 440.417ZM41.8941 347.804L30.6894 300.572C30.3724 300.57 30.0555 300.568 29.7386 300.566L9.48731 379.68C9.80483 379.787 10.0698 379.947 10.388 380.16L41.8941 347.804ZM42.9439 346.648L120.816 266.65C120.71 266.544 120.71 266.439 120.603 266.332L34.6729 295.207C34.9989 296.793 34.5329 298.428 33.2187 299.53C32.798 299.844 32.4297 300.106 31.9553 300.262L42.9439 346.648ZM123.155 260.061L114.034 207.665L36.6853 213.295C36.6346 213.664 36.5839 214.034 36.3744 214.35L120.893 261.58C121.05 261.317 121.26 261.107 121.576 260.897C122.101 260.478 122.681 260.217 123.155 260.061ZM113.868 206.343L100.157 127.405C99.4176 127.4 98.6243 127.237 97.9355 126.864L96.4674 128.757L35.7145 209.803C36.2464 210.44 36.5675 211.182 36.7306 211.975L113.868 206.343ZM115.187 206.192L164.025 202.617C164.125 201.667 164.437 200.718 165.066 199.982L102.371 126.572C102.055 126.782 101.686 126.938 101.37 127.042L115.187 206.192ZM171.456 199.649L235.583 145.084C235.156 144.342 234.887 143.548 234.882 142.703L175.676 134.229L169.601 198.635C170.236 198.849 170.925 199.223 171.456 199.649ZM311.137 130.517L219.711 20.9196C219.395 21.1291 219.079 21.2329 218.762 21.3368L235.2 115.186L310.353 131.939C310.508 131.464 310.77 130.99 311.137 130.517ZM158.873 50.308L177.268 98.7436C177.954 98.5891 178.746 98.6464 179.487 98.862L214.957 20.8924C214.586 20.6261 214.267 20.413 214.001 20.0418C213.948 19.9886 213.895 19.9355 213.842 19.8824L158.873 50.308ZM157.714 50.9352L129.282 66.7236C129.765 67.9412 129.666 69.2083 129.092 70.4198L175.161 99.7879L175.214 99.7354C175.424 99.5253 175.687 99.3684 175.95 99.2114L157.714 50.9352ZM123.4 72.5L116.568 87.7257L174.009 101.472C174.113 101.261 174.218 101.05 174.374 100.787L128.359 71.472C128.254 71.5771 128.149 71.6821 128.044 71.7871C126.729 72.8888 124.935 73.0898 123.4 72.5ZM115.993 88.9372L102.433 119.072C102.805 119.339 103.123 119.552 103.389 119.923C103.708 120.242 103.921 120.665 104.135 121.089L173.703 103.371C173.701 103.16 173.7 102.949 173.699 102.737L115.993 88.9372ZM34.387 208.581C34.5458 208.635 34.652 208.741 34.7051 208.794L81.6193 146.155L96.768 125.906C96.7149 125.853 96.6086 125.747 96.5555 125.694C94.9599 123.783 95.1555 121.038 96.9423 119.463L71.2641 81.2857C70.4745 81.7566 69.5774 81.9099 68.6792 81.8519L34.387 208.581ZM-45.3763 189.214C-46.0144 188.471 -46.3362 187.624 -46.4467 186.778L-103.931 183.913L-37.6165 197.604L-40.7195 190.719C-42.3549 191.08 -44.2063 190.594 -45.3763 189.214ZM-110.411 186.78L-81.7257 270.4L-16.5408 252.921C-16.6513 252.076 -16.498 251.179 -16.1328 250.388L-109.149 185.837C-109.254 185.942 -109.412 186.1 -109.517 186.205C-109.832 186.414 -110.148 186.624 -110.411 186.78ZM-112.521 187.297L-126.519 279.175C-125.725 279.444 -124.984 279.871 -124.399 280.561C-124.08 280.88 -123.866 281.303 -123.705 281.674L-82.9916 270.71L-111.677 187.196C-111.94 187.247 -112.257 187.245 -112.521 187.297ZM-127.684 287.99L-133.961 344.629C-133.115 344.845 -132.32 345.325 -131.681 346.068C-131.309 346.546 -131.042 347.023 -130.881 347.499L-65.4666 333.191C-65.524 332.398 -65.3706 331.501 -64.9523 330.764L-124.628 286.634C-124.733 286.739 -124.785 286.791 -124.89 286.896C-125.731 287.631 -126.68 287.943 -127.684 287.99ZM-125.016 439.914L-98.2948 438.906C-98.1427 437.797 -97.6736 436.691 -96.7271 435.957C-96.5695 435.799 -96.4114 435.747 -96.2538 435.59L-134.069 353.449L-134.174 353.449L-125.016 439.914ZM-124.85 441.236L-118.82 497.893C-118.503 497.895 -118.239 497.949 -117.974 498.004L-96.0514 443.25C-96.4752 443.036 -96.847 442.664 -97.2189 442.292C-97.7508 441.655 -98.072 440.914 -98.2344 440.227L-124.85 441.236ZM-126.17 441.281L-192.391 443.859C-192.441 444.44 -192.648 445.072 -192.909 445.652L-188.93 448.685L-122.193 499.247C-122.14 499.195 -122.035 499.09 -121.983 499.037C-121.404 498.565 -120.825 498.304 -120.192 498.097L-126.17 441.281ZM-197.386 447.897L-204.253 475.483L-123.137 500.404C-123.084 500.351 -123.085 500.246 -123.032 500.193L-189.982 449.419L-193.749 446.598C-193.854 446.703 -193.906 446.755 -194.011 446.86C-194.904 447.753 -196.17 448.063 -197.386 447.897ZM-204.562 476.749L-225.006 559.03C-224.424 559.297 -223.788 559.724 -223.309 560.307C-223.256 560.361 -223.203 560.414 -223.203 560.414L-123.222 503.889C-123.544 503.148 -123.601 502.355 -123.5 501.617L-204.562 476.749ZM-205.832 476.424L-272.873 455.81C-273.081 456.231 -273.449 456.599 -273.817 456.966C-274.132 457.281 -274.501 457.438 -274.922 457.647L-227.965 558.907C-227.385 558.752 -226.804 558.703 -226.223 558.759L-205.832 476.424ZM-329.506 527.531L-290.026 540.962L-278.673 457.572C-278.885 457.465 -279.149 457.305 -279.361 457.199L-330.904 523.192C-330.745 523.351 -330.586 523.51 -330.426 523.67C-329.47 524.732 -329.197 526.159 -329.506 527.531ZM-288.906 542.712L-294.581 584.724C-293.629 584.94 -292.728 585.421 -292.037 586.217C-291.931 586.324 -291.878 586.377 -291.824 586.535L-231.157 564.118C-231.319 563.536 -231.27 562.956 -231.22 562.375L-288.906 542.712ZM-236.774 616.166C-236.565 615.851 -236.25 615.535 -235.935 615.22C-235.146 614.538 -234.145 614.174 -233.141 614.127L-229.472 581.664L-290.966 588.759C-290.911 589.235 -290.961 589.71 -291.117 590.184L-236.774 616.166ZM-135.725 571.11C-135.778 571.057 -135.725 571.004 -135.778 570.951L-228.152 581.619L-231.873 614.346C-231.026 614.562 -230.231 615.042 -229.593 615.785C-229.487 615.891 -229.381 615.997 -229.327 616.156L-135.725 571.11ZM-101.66 515.264C-101.872 515.051 -102.137 514.891 -102.297 514.626C-102.456 514.467 -102.616 514.202 -102.723 513.99L-121.905 521.697L-130 565.491C-129.946 565.544 -129.894 565.492 -129.841 565.545L-101.66 515.264ZM119.672 269.707L43.2699 348.234L65.0835 440.107C65.453 440.057 65.823 440.112 66.1931 440.167L119.672 269.707ZM165.367 206.269C165.26 206.163 165.154 206.057 165.048 205.95C164.569 205.367 164.249 204.731 164.086 204.043L115.407 207.567L124.475 259.805C125.214 259.809 125.954 259.919 126.643 260.293L165.367 206.269ZM126.838 64.1742C127.42 64.4416 128.057 64.8678 128.482 65.3985C128.535 65.4516 128.589 65.5047 128.642 65.5578L157.284 49.665L142.106 9.59339C141.684 9.69661 141.156 9.69358 140.681 9.63803L126.838 64.1742ZM73.4583 77.0728C73.4589 77.1784 73.4595 77.284 73.4602 77.3897L115.192 87.4009L122.233 71.7538C122.021 71.5413 121.861 71.3819 121.649 71.1694C121.223 70.6388 120.903 70.1088 120.741 69.5268L73.4583 77.0728ZM-38.3303 183.655C-37.5848 184.716 -37.3137 185.932 -37.5177 187.199L28.3237 210.5C28.5851 210.027 28.9522 209.553 29.3723 209.133C30.4764 208.242 31.8479 207.933 33.1169 208.151L67.4096 81.5277C66.8802 81.3134 66.4033 81.0466 66.0314 80.6747L66.0846 80.7278L-38.3303 183.655ZM-193.945 439.994C-193.786 440.154 -193.626 440.313 -193.467 440.472C-192.988 441.056 -192.615 441.745 -192.505 442.485L-126.389 439.906L-135.601 353.388C-136.077 353.332 -136.659 353.17 -137.082 352.957L-193.945 439.994ZM-272.304 453.647C-272.302 453.964 -272.353 454.228 -272.405 454.492L-205.523 475.053L-198.655 447.573C-199.238 447.306 -199.821 446.933 -200.3 446.349C-200.725 445.818 -201.046 445.183 -201.208 444.601L-272.304 453.647ZM-331.34 530.214L-297.326 585.025C-296.905 584.816 -296.377 584.713 -295.902 584.663L-290.177 542.282L-329.975 528.743C-330.236 529.217 -330.498 529.585 -330.919 529.9C-331.076 530.057 -331.181 530.162 -331.34 530.214Z" fill="url(#paint0_linear_24_3861)" fill-opacity="0.4"/>
<defs>
<linearGradient id="paint0_linear_24_3861" x1="-139.171" y1="202.977" x2="87.1659" y2="429.313" gradientUnits="userSpaceOnUse">
<stop stop-color="#D8CC88"/>
<stop offset="1" stop-color="#7C633E"/>
</linearGradient>
</defs>
</svg>
