<svg width="317" height="780" viewBox="0 0 317 780" fill="none" xmlns="http://www.w3.org/2000/svg">
<path d="M459.29 8.07829C457.013 6.76404 454.061 7.5551 452.747 9.83144C452.484 10.2867 452.322 10.8004 452.19 11.2635L388.643 4.85844C388.556 3.25689 387.729 1.76798 386.262 0.921023C383.986 -0.393232 381.034 0.39783 379.719 2.67418C378.726 4.39408 378.942 6.47437 380.029 7.97893L301.965 87.3488C301.813 87.2612 301.661 87.1736 301.51 87.086C299.233 85.7717 296.281 86.5628 294.967 88.8391C293.652 91.1155 294.444 94.0677 296.72 95.382C297.023 95.5572 297.306 95.6527 297.638 95.7773L286.992 156.741C285.268 156.69 283.619 157.559 282.714 159.127C281.4 161.403 282.191 164.356 284.467 165.67C285.378 166.196 286.413 166.389 287.413 166.292L305.248 231.895C304.333 232.312 303.563 232.946 303.008 233.907C302.424 234.918 302.252 236.033 302.45 237.092L149.757 286.729C149.362 285.894 148.698 285.174 147.889 284.707C145.613 283.393 142.66 284.184 141.346 286.46C140.032 288.736 140.823 291.689 143.099 293.003C143.706 293.353 144.321 293.573 144.973 293.613L151.239 487.432C149.091 486.596 146.581 487.44 145.383 489.514C144.069 491.79 144.86 494.742 147.136 496.057C147.288 496.144 147.389 496.203 147.541 496.29L127.645 564.863C125.777 564.594 123.839 565.498 122.846 567.218C121.648 569.292 122.223 571.917 124.021 573.36L78.7816 651.717C76.5829 650.852 74.0723 651.696 72.8749 653.77C72.174 654.984 72.0879 656.418 72.5098 657.673L8.73242 689.985C8.3726 689.44 7.82396 688.988 7.26753 688.667C4.99117 687.353 2.03896 688.144 0.724685 690.42C-0.589555 692.697 0.201467 695.649 2.47782 696.963C4.60242 698.19 7.22768 697.615 8.64882 695.737L138.89 772.956C137.975 775.125 138.84 777.715 140.914 778.913C143.19 780.227 146.143 779.436 147.457 777.16C147.924 776.35 148.109 775.445 148.084 774.554L219.496 760.679C219.853 761.695 220.581 762.654 221.592 763.239C223.869 764.553 226.821 763.762 228.135 761.485C229.45 759.209 228.659 756.257 226.382 754.943C225.725 754.563 224.979 754.335 224.248 754.317L218.951 694.333C220.198 694.042 221.317 693.272 222.018 692.058C222.748 690.793 222.834 689.359 222.412 688.104L267.29 663.293C267.658 663.708 268.055 664.072 268.561 664.364C270.837 665.678 273.789 664.887 275.103 662.611C276.418 660.335 275.627 657.382 273.35 656.068L273.986 656.368L342.648 514.779C344.753 515.455 347.083 514.574 348.222 512.601C348.777 511.64 348.949 510.525 348.801 509.496L411.745 490.193C412.14 491.028 412.774 491.798 413.685 492.324C415.961 493.638 418.913 492.847 420.227 490.571C421.542 488.295 420.751 485.342 418.474 484.028C417.665 483.561 416.76 483.376 415.869 483.401L397.634 385.663C398.7 385.335 399.609 384.578 400.222 383.516C401.537 381.239 400.746 378.287 398.469 376.973C397.609 376.476 396.654 376.262 395.683 376.308L382.051 316.976C383.016 316.589 383.896 315.883 384.451 314.922C385.765 312.645 384.974 309.693 382.698 308.379C382.546 308.291 382.394 308.203 382.163 308.137L408.822 199.696C410.568 199.827 412.346 198.965 413.31 197.296C414.011 196.082 414.148 194.677 413.726 193.422L481.877 158.442C482.287 159.016 482.806 159.518 483.414 159.868C485.69 161.183 488.642 160.392 489.956 158.115C491.241 155.89 490.522 153.046 488.355 151.66L517.035 66.238C518.831 66.3982 520.61 65.5367 521.573 63.8674C522.888 61.591 522.097 58.6387 519.82 57.3245C518.1 56.3315 516.049 56.4963 514.595 57.6128L461.122 14.5998C462.386 12.2942 461.566 9.39254 459.29 8.07829ZM339.926 507.812C339.605 508.368 339.414 508.932 339.324 509.555L270.502 509.951L334.016 500.758L340.218 507.306C340.181 507.487 340.043 507.609 339.926 507.812ZM266.231 660.456L221.231 665.501L224.219 630.535C225.35 630.446 226.504 629.966 227.312 629.151L266.667 658.415C266.317 659.022 266.219 659.775 266.231 660.456ZM219.861 756.776C219.393 757.585 219.208 758.49 219.233 759.381L147.822 773.256C147.593 772.719 147.363 772.182 146.945 771.738L191.191 721.27L220.379 755.995C220.232 756.248 220.036 756.472 219.861 756.776ZM300.536 95.8989C301.682 95.549 302.642 94.8215 303.284 93.7086C303.839 92.7475 304.032 91.7123 303.884 90.6829L392.655 65.3147C392.749 65.5035 392.863 65.7721 393.007 65.9901L307.705 142.125L300.536 95.8989ZM483.683 151.458L400.867 66.2786C400.955 66.1269 401.122 65.9537 401.21 65.802C401.531 65.2455 401.751 64.6307 401.841 64.008L466.943 62.8127L484.888 151.007C484.489 151.114 484.06 151.271 483.683 151.458ZM396.649 58.5149L393.586 45.0109L452.365 15.749L400.165 59.668C399.941 59.4714 399.667 59.2456 399.414 59.0995C398.575 58.6828 397.62 58.4685 396.649 58.5149ZM395.292 58.8783C394.327 59.2653 393.447 59.9714 392.863 60.9831C392.308 61.9442 392.115 62.9794 392.263 64.0088L306.314 88.5781L392.337 45.7733L395.292 58.8783ZM389.377 71.1106L312.88 159.682C312.829 159.652 312.779 159.623 312.728 159.594C311.969 159.156 311.144 158.949 310.282 158.924L307.923 143.735L389.377 71.1106ZM308.854 159.178C307.708 159.528 306.748 160.256 306.105 161.368C305.872 161.773 305.689 162.207 305.586 162.62L291.608 161.362C291.554 160.521 291.29 159.694 290.807 159.011L306.65 144.888L308.854 159.178ZM291.002 164.047C291.236 163.642 291.419 163.208 291.522 162.796L305.499 164.054C305.616 165.605 306.442 167.094 307.909 167.941C308.364 168.203 308.878 168.365 309.421 168.476L306.676 231.641C306.676 231.641 306.626 231.612 306.597 231.662L288.762 166.058C289.676 165.642 290.476 164.958 291.002 164.047ZM391.812 383.246L354.696 409.098L315.108 358.858C315.334 358.584 315.56 358.31 315.764 357.956C315.823 357.855 315.91 357.703 315.969 357.602L391.354 380.419C391.19 381.403 391.367 382.382 391.812 383.246ZM141.611 770.345L92.4109 682.315L147.686 675.244C148.036 676.39 148.785 677.43 149.898 678.072C150.302 678.306 150.736 678.489 151.149 678.592L142.989 770.061C142.569 770.088 142.04 770.187 141.611 770.345ZM9.38584 691.307L73.1632 658.995C73.523 659.54 74.0424 660.042 74.6494 660.393C75.9647 661.152 77.4785 661.217 78.763 660.744L90.1481 681.211L9.39938 691.517C9.4072 691.386 9.40722 691.386 9.38584 691.307ZM144.258 642.981L150.784 669.411C149.717 669.74 148.808 670.496 148.195 671.559C148.078 671.761 147.962 671.963 147.895 672.195L81.8604 656.664C81.8761 656.404 81.9131 656.223 81.849 655.983L144.258 642.981ZM128.784 574.222C129.51 573.899 130.193 573.416 130.703 572.767L219.38 623.964C219.13 624.629 219.012 625.303 219.074 626.013L145.323 641.37L128.784 574.222ZM306.627 241.19L309.503 319.268L229.399 327.99C229.257 327.301 228.876 326.676 228.436 326.152L304.5 240.434C304.551 240.463 304.652 240.522 304.702 240.551C305.36 240.93 306.004 241.1 306.627 241.19ZM261.629 506.043C260.884 505.815 260.072 505.819 259.304 505.982L246.528 465.961L286.098 455.016C286.23 456.306 286.942 457.527 288.047 458.3L261.629 506.043ZM228.948 331.574C229.007 331.473 229.065 331.372 229.153 331.22L305.405 354.403L306.845 354.83C306.644 355.995 306.965 357.192 307.613 358.173L263.088 398.025L227.71 333.017C228.175 332.679 228.598 332.181 228.948 331.574ZM308.543 359.249C308.766 359.446 308.969 359.563 309.222 359.709C309.475 359.855 309.757 359.95 309.959 360.067L291.86 449.71C291.629 449.643 291.368 449.628 291.107 449.612L263.742 399.347L308.543 359.249ZM289.607 449.757C289.208 449.864 288.78 450.022 288.453 450.238L257.68 436.248L237.608 427.088C237.977 425.749 237.773 424.35 237.082 423.209L262.665 400.277L289.607 449.757ZM235.154 430.055C235.909 429.681 236.52 429.09 237.009 428.36L257.312 437.587L287.217 451.21C287.02 451.434 286.874 451.687 286.728 451.94C286.436 452.446 286.274 452.959 286.192 453.452L246.143 464.525L235.154 430.055ZM307.468 353.166C307.41 353.267 307.352 353.368 307.264 353.52L229.572 329.91C229.609 329.729 229.616 329.599 229.603 329.389L309.577 320.66L310.696 350.847C309.398 351.11 308.199 351.901 307.468 353.166ZM226.439 333.7L261.983 399.006L236.152 422.133C235.929 421.936 235.705 421.74 235.401 421.565C234.744 421.185 234.049 420.986 233.397 420.947L225.91 333.799C226.091 333.836 226.251 333.793 226.439 333.7ZM233.819 430.498L244.757 464.939L153.879 490.102C153.836 489.943 153.714 489.804 153.671 489.645L229.752 429.364C230.026 429.59 230.25 429.787 230.553 429.962C231.616 430.575 232.76 430.696 233.819 430.498ZM245.171 466.325L257.94 506.476C257.235 506.878 256.544 507.491 256.106 508.25C255.96 508.503 255.864 508.785 255.718 509.038L154.203 492.111C154.19 491.9 154.205 491.64 154.192 491.429L245.171 466.325ZM81.2215 658.589C81.3383 658.386 81.4552 658.184 81.5214 657.953L131.554 669.775L147.578 673.563C147.599 673.643 147.541 673.744 147.562 673.824L91.7069 680.965L79.9834 660.032C80.4778 659.643 80.871 659.196 81.2215 658.589ZM219.357 627.391C219.4 627.55 219.472 627.659 219.515 627.819L155.886 670.738C155.54 670.403 155.193 670.068 154.738 669.806C153.929 669.338 153.024 669.153 152.133 669.178L145.607 642.748L219.357 627.391ZM262.902 506.643L289.29 458.95C290.752 459.456 292.39 459.188 293.618 458.346L332.863 499.485L264.94 509.304C264.612 508.237 263.884 507.277 262.902 506.643ZM294.673 457.337C294.841 457.163 294.929 457.012 295.045 456.809C295.133 456.658 295.221 456.506 295.258 456.325L411.351 487.604C411.314 487.785 411.328 487.996 411.32 488.126L334.552 499.246L294.673 457.337ZM293.191 450.208L311.327 360.385C312.24 360.44 313.168 360.234 313.981 359.759L353.548 409.919L294.368 451.09C294.072 450.784 293.697 450.5 293.242 450.237C293.242 450.237 293.242 450.237 293.191 450.208ZM312.138 350.803L310.997 320.535L375.64 313.477C375.675 313.767 375.79 314.035 375.905 314.304L315.231 352.454C314.863 352.04 314.467 351.676 314.011 351.413C313.404 351.062 312.789 350.842 312.138 350.803ZM376.184 310.081C375.834 310.688 375.635 311.383 375.596 312.035L310.953 319.093L308.069 241.145C308.758 241.004 309.375 240.753 309.978 240.292L376.753 309.33C376.556 309.554 376.33 309.828 376.184 310.081ZM303.512 239.459L227.448 325.177C227.398 325.148 227.296 325.089 227.246 325.06C225.071 323.804 222.336 324.451 220.907 326.459L150.051 290.541C150.279 289.796 150.355 288.963 150.243 288.224L302.886 238.558C303.051 238.855 303.267 239.182 303.512 239.459ZM149.379 291.705L220.236 327.623C219.538 329.648 220.289 331.97 222.153 333.181L202.282 376.476L148.622 292.549C148.899 292.304 149.175 292.059 149.379 291.705ZM223.476 333.81C223.808 333.935 224.199 333.958 224.511 334.003L231.948 421.122C231.628 421.207 231.309 421.293 231.011 421.458L203.189 377.943L223.476 333.81ZM229.842 422.199C229.456 422.516 229.092 422.913 228.8 423.419C227.895 424.987 227.966 426.849 228.822 428.288L152.741 488.568C152.64 488.51 152.568 488.401 152.467 488.343L202.522 379.448L229.842 422.199ZM153.671 494.434C153.847 494.13 153.971 493.798 154.067 493.515L255.531 510.414C255.508 510.805 255.535 511.225 255.642 511.624L180.005 545.317L152.463 495.827C152.928 495.488 153.321 495.041 153.671 494.434ZM256.085 512.959C256.458 513.714 257.1 514.355 257.859 514.793L225.359 618.513L224.588 620.901C223.784 620.774 222.915 620.879 222.138 621.172L180.637 546.559L256.085 512.959ZM220.968 621.913C220.641 622.129 220.386 622.454 220.16 622.729L131.434 571.502C131.808 570.504 131.87 569.461 131.592 568.424L179.374 547.111L220.968 621.913ZM127.406 574.505L143.924 641.574L81.5439 654.526C81.2503 653.749 80.7466 652.986 79.9956 652.418L125.147 574.213C125.914 574.52 126.667 574.618 127.406 574.505ZM9.63247 692.865L90.9105 682.461L140.341 771.028C140.064 771.273 139.788 771.518 139.562 771.792L9.27 694.545C9.51147 694.009 9.62255 693.467 9.63247 692.865ZM145.927 770.813C145.877 770.784 145.776 770.726 145.725 770.696C145.32 770.463 144.886 770.28 144.474 770.177L152.634 678.708C153.394 678.675 154.221 678.41 154.875 677.979L190.319 720.093L145.927 770.813ZM155.923 677.099C156.119 676.876 156.345 676.601 156.491 676.348C156.52 676.298 156.52 676.298 156.55 676.247L213.142 689.091C212.984 690.416 213.347 691.773 214.226 692.82L191.244 719.075L155.923 677.099ZM213.743 687.348C213.656 687.5 213.597 687.601 213.51 687.752L157.048 674.916C157.114 674.685 157.159 674.373 157.175 674.113L219.695 667.11L218.152 684.969C216.377 684.889 214.678 685.729 213.743 687.348ZM156.971 672.713C156.907 672.474 156.864 672.315 156.771 672.126L220.336 628.967C220.682 629.302 221.028 629.637 221.483 629.9C221.888 630.133 222.322 630.316 222.785 630.449L219.752 665.726L156.971 672.713ZM269.766 655.617C268.859 655.903 268.016 656.428 267.397 657.15L228.143 627.944C229.378 625.689 228.557 622.788 226.332 621.503C226.23 621.444 226.129 621.386 226.028 621.327L234.149 595.462L259.241 515.321C259.371 515.328 259.552 515.365 259.653 515.424L269.766 655.617ZM341.324 506.325L335.785 500.497L407.166 490.18L348.438 508.139C348.043 507.304 347.409 506.534 346.498 506.008C344.8 505.095 342.828 505.238 341.324 506.325ZM411.961 485.731C411.873 485.882 411.785 486.034 411.748 486.215L295.655 454.936C295.79 454.002 295.584 453.073 295.189 452.238L354.427 410.966L412.667 484.857C412.362 485.153 412.136 485.427 411.961 485.731ZM413.765 484.007L355.546 410.196L392.553 384.416C392.849 384.722 393.224 385.006 393.679 385.269C394.489 385.736 395.394 385.921 396.285 385.896L414.6 483.612C414.281 483.698 413.983 483.863 413.765 484.007ZM391.926 378.726C391.868 378.827 391.78 378.979 391.722 379.08L316.337 356.263C316.442 355.379 316.367 354.459 315.972 353.624L376.566 315.495C376.904 315.96 377.352 316.353 377.908 316.675C378.768 317.171 379.723 317.386 380.695 317.339L394.326 376.672C393.39 377.008 392.51 377.714 391.926 378.726ZM377.909 308.379C377.88 308.43 377.829 308.4 377.8 308.451L310.975 239.383C311.091 239.181 311.23 239.058 311.346 238.856C311.989 237.743 312.118 236.469 311.848 235.301L338.267 224.587L377.909 308.379ZM311.325 233.987C310.922 233.283 310.331 232.671 309.622 232.263C309.167 232 308.654 231.838 308.111 231.727L310.855 168.562C311.145 168.527 311.464 168.442 311.754 168.407L337.715 223.324L311.325 233.987ZM312.996 167.775C313.57 167.364 314.123 166.874 314.503 166.217C314.561 166.115 314.62 166.014 314.678 165.913L399.406 192.641L404.492 194.228C404.373 194.901 404.414 195.532 404.585 196.17L339.058 222.751L312.996 167.775ZM405.014 192.506C404.956 192.607 404.897 192.709 404.839 192.81L400.115 191.296L315.105 164.473C315.083 164.393 315.142 164.292 315.12 164.212L405.297 159.89L408.111 190.18C406.834 190.522 405.715 191.292 405.014 192.506ZM315.047 162.821C314.913 162.002 314.539 161.247 313.948 160.635L394.414 67.4091C394.464 67.4383 394.515 67.4675 394.566 67.4967C395.223 67.8764 395.968 68.1043 396.7 68.122L405.093 158.491L315.047 162.821ZM398.171 68.0272C398.78 67.9067 399.347 67.6267 399.841 67.2376L482.534 152.279C482.229 152.575 481.945 152.95 481.711 153.355C481.419 153.861 481.257 154.374 481.175 154.867L406.615 158.425L398.171 68.0272ZM515.03 65.6205C515.233 65.7373 515.435 65.8542 515.667 65.9204L487.133 151.09C486.851 150.994 486.59 150.978 486.279 150.934L468.356 62.8189L512.706 62.0528C512.83 63.4734 513.665 64.832 515.03 65.6205ZM401.746 62.5368C401.625 61.9277 401.425 61.34 401.116 60.8242L454.146 16.1699C454.247 16.2283 454.399 16.3159 454.5 16.3743C455.461 16.9292 456.576 17.1008 457.605 16.9532L466.638 61.355L401.746 62.5368ZM452.104 12.6976C452.152 13.1978 452.28 13.6765 452.488 14.1339L393.252 43.6039L385.586 9.56861C386.551 9.18168 387.431 8.47559 388.015 7.46388C388.249 7.0592 388.403 6.67588 388.506 6.26337L452.104 12.6976ZM381.039 9.03398C381.19 9.12159 381.342 9.20921 381.494 9.29683C382.354 9.79332 383.309 10.0077 384.23 9.93207L391.981 44.2865L303.046 88.5129C302.996 88.4837 302.974 88.4039 302.924 88.3747L381.039 9.03398ZM299.006 96.095C299.057 96.1242 299.086 96.0736 299.137 96.1028L306.411 143.199L289.877 157.934C289.654 157.738 289.451 157.621 289.198 157.475C288.895 157.3 288.613 157.204 288.28 157.08L299.006 96.095ZM146.327 293.72C146.697 293.664 147.096 293.557 147.423 293.341L201.587 378.031L152.519 484.865L146.327 293.72ZM148.843 496.839C149.646 496.966 150.436 496.883 151.162 496.56L178.633 545.941L130.96 567.182C130.579 566.557 130.009 566.026 129.301 565.617C129.149 565.529 129.048 565.471 128.896 565.383L148.843 496.839ZM222.928 754.5C222.449 754.628 221.942 754.807 221.506 755.095L192.144 720.202L215.294 693.774C215.345 693.803 215.446 693.861 215.497 693.891C216.154 694.27 216.899 694.498 217.631 694.516L222.928 754.5ZM221.802 686.942C221.442 686.397 220.893 685.945 220.286 685.595C220.033 685.449 219.751 685.353 219.498 685.207L221.043 666.877L266.464 661.805C266.485 661.884 266.528 662.044 266.6 662.153L221.802 686.942ZM272.815 655.827L272.866 655.856C272.331 655.614 271.737 655.474 271.187 655.493L261.066 515.43C262.465 515.226 263.744 514.413 264.503 513.098C264.824 512.542 265.015 511.977 265.105 511.355L339.398 510.946C339.609 512.215 340.321 513.436 341.455 514.158L272.815 655.827ZM380.904 307.748C380.332 307.687 379.781 307.706 379.223 307.856L339.61 224.014L405.087 197.404C405.518 198.058 406.059 198.64 406.767 199.049C406.97 199.166 407.223 199.312 407.454 199.378L380.904 307.748ZM413.094 192.18C412.683 191.606 412.164 191.104 411.557 190.753C410.899 190.373 410.205 190.175 409.502 190.106L406.688 159.817L481.068 156.221C481.103 156.511 481.188 156.83 481.274 157.149L413.094 192.18ZM513.307 59.0271C513.014 59.5329 512.853 60.0466 512.742 60.5895L468.051 61.3613L458.962 16.5898C459.419 16.3817 459.855 16.0939 460.27 15.7262L513.62 58.601C513.482 58.7236 513.394 58.8753 513.307 59.0271Z" fill="#F0F0F0" fill-opacity="0.2"/>
</svg>
