<svg width="500" height="453" viewBox="0 0 500 453" fill="none" xmlns="http://www.w3.org/2000/svg">
<g filter="url(#filter0_f_24_3567)">
<path d="M468.265 578.361L489.633 493.344C491.936 493.27 494.216 491.923 495.203 489.567C496.474 486.44 495.044 482.839 491.95 481.589C489.708 480.663 487.171 481.19 485.475 482.723L391.285 418.617C392.42 415.534 390.986 412.16 387.939 410.819C384.845 409.569 381.254 411.042 379.983 414.169C379.652 415.03 379.501 415.984 379.533 416.802L283.94 434.362C283.379 432.813 282.273 431.441 280.568 430.792C278.326 429.866 275.926 430.348 274.23 431.881L164.649 343.117C164.742 342.936 164.882 342.664 164.976 342.483C166.247 339.356 164.817 335.755 161.722 334.504C160.422 333.949 158.979 333.893 157.753 334.293L126.241 263.745C127.245 263.116 128.073 262.168 128.59 260.944C129.861 257.817 128.431 254.216 125.337 252.966C123.947 252.365 122.457 252.399 121.095 252.843L65.0545 139.752C65.9686 139.077 66.7503 138.219 67.2206 137.086C68.4915 133.959 67.0616 130.358 63.9674 129.108C60.8731 127.858 57.2822 129.331 56.0113 132.457C55.4944 133.681 55.4289 134.907 55.6357 136.045L-22.7282 165.46C-23.3864 164.319 -24.3636 163.358 -25.7531 162.756C-28.4426 161.6 -31.4384 162.578 -33.1027 164.929L-210.474 75.16L-210.894 75.975C-209.623 72.8483 -211.053 69.2469 -214.147 67.9967C-217.242 66.7465 -220.833 68.2197 -222.103 71.3464C-222.34 72.0264 -222.577 72.7064 -222.589 73.3881L-286.903 83.2272C-287.418 81.5871 -288.613 80.1692 -290.318 79.5202C-291.886 78.8267 -293.649 78.95 -295.104 79.5755L-335.337 14.9618C-334.696 14.3757 -334.05 13.5624 -333.72 12.7013C-332.449 9.57457 -333.879 5.97323 -336.973 4.72302C-340.067 3.47279 -343.658 4.94599 -344.929 8.07271C-345.539 9.47718 -345.519 10.9772 -345.09 12.344L-427.853 53.8166C-428.515 52.9027 -429.36 52.1237 -430.481 51.6608C-433.575 50.4106 -437.166 51.8838 -438.437 55.0105C-439.657 57.8195 -438.539 61.1458 -435.9 62.6199L-508.675 241.931C-511.551 241.137 -514.69 242.614 -515.868 245.559C-517.139 248.686 -515.709 252.287 -512.615 253.538C-509.52 254.788 -505.929 253.315 -504.659 250.188C-504.328 249.327 -504.134 248.51 -504.166 247.692L-415.04 230.81C-414.525 232.45 -413.283 233.778 -411.625 234.517C-408.846 235.72 -405.621 234.517 -404.089 231.983L-298.73 275.946C-299.456 278.895 -298.061 281.905 -295.282 283.107C-292.951 284.079 -290.367 283.462 -288.578 281.748L-216.157 335.557C-216.251 335.738 -216.344 335.919 -216.437 336.1C-217.708 339.227 -216.278 342.828 -213.184 344.078C-210.405 345.281 -207.226 344.168 -205.695 341.634L-64.2932 542.128C-64.9349 542.715 -65.3976 543.393 -65.6813 544.164C-66.9522 547.29 -65.5222 550.892 -62.4281 552.142C-59.3338 553.392 -55.7429 551.919 -54.472 548.792C-54.0018 547.659 -53.9362 546.433 -54.143 545.295L138.049 476.774C138.661 478.006 139.727 479.014 141.027 479.569C142.238 480.078 143.545 480.179 144.86 479.825L176.844 560.012C175.704 560.686 174.876 561.634 174.312 562.948C173.042 566.075 174.471 569.676 177.566 570.926C179.718 571.806 182.072 571.414 183.721 569.972L240.981 623.304C240.795 623.666 240.519 623.982 240.422 624.391C239.151 627.517 240.581 631.119 243.675 632.369C246.769 633.619 250.36 632.146 251.631 629.019C251.724 628.838 251.817 628.657 251.821 628.43L391.311 647.921C391.316 650.33 392.679 652.522 395.01 653.494C398.104 654.744 401.695 653.271 402.966 650.144C403.767 648.15 403.532 645.967 402.341 644.322L461.686 588.494C462.13 588.952 462.757 589.274 463.294 589.551C466.388 590.801 469.979 589.328 471.25 586.201C472.653 583.257 471.313 579.702 468.265 578.361ZM-29.6036 174.409L-30.9676 185.852L-102.151 225.957L-32.3321 172.889C-31.7988 173.393 -31.1292 173.852 -30.4131 174.221C-30.1873 174.223 -29.9188 174.361 -29.6036 174.409ZM-219.387 79.048L-236.864 139.142C-238.351 138.949 -239.802 139.347 -240.988 140.111L-270.688 107.165L-221.299 77.2611C-220.859 77.9462 -220.146 78.5423 -219.387 79.048ZM-340.551 16.2866L-343.589 74.0787L-426.875 57.4146C-426.817 56.6424 -426.895 55.9145 -427.109 55.2312L-344.346 13.7585C-343.684 14.6725 -342.84 15.4515 -341.719 15.9143C-341.271 16.1449 -340.956 16.1927 -340.551 16.2866ZM215.929 568.803L360.216 579.421C360.255 579.785 360.251 580.012 360.29 580.376L251.177 623.743C250.519 622.602 249.541 621.641 248.241 621.085C246.762 620.438 245.136 620.517 243.864 621.007L215.929 568.803ZM388.158 422.048L437.233 525.134L370.498 574.634C369.965 574.13 369.296 573.671 368.579 573.302C368.311 573.164 368.085 573.162 367.816 573.023L386.661 422.536C387.248 422.495 387.703 422.271 388.158 422.048ZM371.833 581.28C372.019 580.918 372.116 580.51 372.213 580.101L458.513 583.879L376.803 599.998L369.62 584.036C370.534 583.361 371.362 582.413 371.833 581.28ZM374.99 600.439L255.415 624.093L360.984 582.108C361.642 583.25 362.619 584.211 363.919 584.766C365.219 585.322 366.663 585.378 367.978 585.024L374.99 600.439ZM214.877 566.886L205.681 549.773C206.549 549.189 207.241 548.285 207.665 547.243C207.711 547.152 207.758 547.061 207.758 547.061L352.67 577.138L214.877 566.886ZM212.803 566.734L186.065 564.763C185.948 563.671 185.648 562.714 185.032 561.71L198.191 549.581C198.681 549.948 199.082 550.269 199.666 550.456C201.145 551.103 202.771 551.024 204.044 550.534L212.803 566.734ZM178.572 559.298L146.588 479.11C146.588 479.11 146.588 479.11 146.634 479.02L197.525 540.758C197.066 541.21 196.739 541.843 196.413 542.477C195.612 544.471 195.847 546.655 196.949 548.254L183.79 560.382C183.3 560.015 182.899 559.694 182.315 559.508C181.058 559.089 179.751 558.989 178.572 559.298ZM118.715 262.962L59.8883 344.61C59.7092 344.518 59.6197 344.471 59.4407 344.379C58.993 344.149 58.5883 344.055 58.0474 344.005L59.7187 262.477L116.962 259.767C117.259 260.951 117.827 262.046 118.715 262.962ZM-429.483 62.2585L-351.458 148.288C-351.828 148.786 -352.151 149.192 -352.341 149.782C-352.998 151.277 -352.981 153.004 -352.463 154.417L-413.733 190.232L-431.121 63.019C-430.576 62.8413 -429.985 62.573 -429.483 62.2585ZM-504.626 245.507L-415.137 193.176L-411.114 222.749C-412.837 223.236 -414.304 224.543 -414.964 226.266C-415.295 227.127 -415.489 227.944 -415.414 228.899L-504.54 245.78C-504.583 245.643 -504.536 245.553 -504.626 245.507ZM-404.291 225.118C-404.423 224.935 -404.599 224.616 -404.821 224.387L-349.894 157.345C-349.625 157.483 -349.356 157.622 -349.088 157.76C-347.698 158.361 -346.208 158.327 -344.846 157.882L-331.289 189.618L-404.291 225.118ZM-328.957 190.59L-242.712 148.734C-242.182 149.465 -241.606 150.106 -240.8 150.521L-291.428 271.228C-292.417 270.948 -293.455 270.985 -294.498 271.25L-328.957 190.59ZM137.91 471.546C137.864 471.637 137.817 471.727 137.77 471.818L-4.52117 444.352C-4.50603 443.443 -4.62711 442.578 -4.97384 441.712L82.6821 388.322L139.298 469.511C138.703 470.007 138.194 470.776 137.91 471.546ZM-45.0964 264.515C-45.6209 266.193 -45.3787 267.922 -44.5452 269.383L-92.8615 289.068L-110.534 238.712C-109.623 238.264 -108.845 237.634 -108.2 236.82L-45.0964 264.515ZM-10.5559 438.035L-24.4011 344.846L50.9879 350.452C51.0976 351.999 51.7521 353.367 52.8188 354.375L51.6639 355.957L-7.81218 438.646C-7.99124 438.554 -8.08071 438.508 -8.25976 438.415C-9.02263 438.137 -9.83209 437.949 -10.5559 438.035ZM-24.6861 342.981L-35.361 270.906C-35.1315 270.68 -34.9021 270.455 -34.6726 270.229L51.9978 346.733C51.8578 347.004 51.6712 347.367 51.4846 347.729C51.3447 348.001 51.2476 348.409 51.1972 348.727L-24.6861 342.981ZM-26.5345 342.831L-69.9553 339.599C-70.1079 337.916 -70.9843 336.318 -72.3662 335.263L-58.9965 310.409L-38.5901 272.336C-38.092 272.249 -37.5473 272.071 -37.0026 271.893L-26.5345 342.831ZM-92.2575 290.754L-43.3499 270.801C-42.9061 271.259 -42.2794 271.581 -41.6528 271.904C-41.2947 272.089 -40.8899 272.183 -40.5747 272.23L-60.4213 309.217L-73.9309 334.342C-74.9624 333.925 -76.0908 333.917 -77.0869 334.091L-92.2575 290.754ZM59.7536 355.426L81.6696 386.769L-5.8502 440.115C-5.9826 439.932 -6.115 439.749 -6.29406 439.657L54.2474 355.34C54.4264 355.432 54.516 355.478 54.695 355.571C56.3959 356.447 58.2052 356.233 59.7536 355.426ZM-13.0928 438.561L-72.0268 344.719C-71.385 344.133 -70.7861 343.41 -70.4558 342.549C-70.2692 342.187 -70.1721 341.779 -70.1217 341.461L-26.3857 344.741L-12.548 438.383C-12.6375 438.337 -12.8204 438.472 -13.0928 438.561ZM-81.6184 337.83C-81.805 338.192 -81.9021 338.601 -81.9991 339.009L-204.899 337.231C-204.895 337.004 -204.938 336.867 -205.024 336.594L-94.0277 291.332L-78.8572 334.669C-79.997 335.342 -81.0082 336.426 -81.6184 337.83ZM-205.675 334.998C-205.76 334.725 -205.982 334.496 -206.115 334.313L-116.441 238.304C-116.083 238.489 -115.814 238.627 -115.456 238.812C-114.425 239.228 -113.343 239.327 -112.257 239.199L-94.5422 289.691L-205.675 334.998ZM-409.258 222.445L-413.405 192.234L-351.497 156.06C-351.408 156.107 -351.365 156.243 -351.275 156.289L-364.638 172.553L-406.203 223.331C-406.471 223.193 -406.74 223.054 -407.008 222.916C-407.725 222.547 -408.581 222.45 -409.258 222.445ZM-329.697 188.948L-343.298 157.076C-342.384 156.401 -341.602 155.543 -341.132 154.41C-340.941 153.821 -340.751 153.231 -340.65 152.596L-243.577 146.455C-243.534 146.592 -243.538 146.819 -243.405 147.002L-329.697 188.948ZM-107.335 230.963L-31.1844 188.033L-39.425 260.103C-41.3668 260.134 -43.1446 261.166 -44.2566 262.885L-107.271 235.236C-106.886 233.83 -106.906 232.33 -107.335 230.963ZM-29.2704 186.956L56.7692 138.463C56.9016 138.645 57.034 138.828 57.1664 139.011L-36.2767 260.808C-36.4557 260.716 -36.7243 260.578 -36.9033 260.486C-37.1719 260.347 -37.4871 260.3 -37.6661 260.207L-29.2704 186.956ZM-33.6967 268.554C-33.4168 268.011 -33.316 267.376 -33.2617 266.831L58.0026 262.51L56.2885 343.901C55.1562 344.12 54.0202 344.566 53.1956 345.287L-33.6967 268.554C-33.7434 268.645 -33.7434 268.645 -33.6967 268.554ZM62.6939 352.357C62.9309 351.677 63.1679 350.997 63.1793 350.316L153.566 341.762C153.605 342.125 153.78 342.445 153.956 342.764L83.2179 385.963L61.259 354.483C61.8113 353.851 62.274 353.172 62.6939 352.357ZM158.234 346.114L143.391 467.724C142.488 467.717 141.671 467.984 140.808 468.341L84.2342 387.288L154.925 344.181C155.502 344.821 156.171 345.281 157.023 345.605C157.424 345.926 157.829 346.02 158.234 346.114ZM137.445 475.088L-54.747 543.609C-55.1833 542.696 -55.849 542.01 -56.6976 541.458L-12.4721 450.111C-9.55312 451.041 -6.27743 449.52 -5.01028 446.621C-4.96363 446.53 -4.91696 446.44 -4.87031 446.349L137.421 473.815C137.371 474.133 137.363 474.587 137.445 475.088ZM-59.6595 540.39L-69.3849 413.917L-16.3129 442.173C-17.2143 444.803 -16.2712 447.81 -14.0835 449.28L-58.3091 540.628C-58.7138 540.534 -59.2081 540.394 -59.6595 540.39ZM-69.6195 411.733L-74.6683 346.109C-74.2598 345.975 -73.8513 345.842 -73.4427 345.709L-14.5981 439.504C-14.9638 439.774 -15.24 440.091 -15.5627 440.497L-69.6195 411.733ZM-71.4528 410.674L-205.073 339.548C-204.98 339.367 -205.023 339.23 -204.929 339.049L-82.0294 340.827C-81.7948 343.01 -80.5175 344.929 -78.3652 345.808C-77.6919 346.041 -77.1081 346.227 -76.431 346.232L-71.4528 410.674ZM-210.816 332.006L-220.689 260.573L-118.477 235.88C-118.259 236.336 -118.041 236.793 -117.64 237.114L-207.267 333.032C-207.578 332.757 -207.937 332.572 -208.431 332.432C-209.283 332.108 -210.139 332.011 -210.816 332.006ZM-221.021 258.798L-235.936 151.193C-234.983 150.882 -234.026 150.344 -233.291 149.577L-230.613 151.415L-118.667 230.97C-119.09 232.012 -119.199 233.102 -119.081 234.194L-221.021 258.798ZM-222.788 259.148L-287.333 274.712C-287.855 273.527 -288.649 272.43 -289.766 271.74L-239.139 151.033C-238.644 151.173 -238.103 151.223 -237.652 151.226L-222.788 259.148ZM-298.155 273.95L-403.514 229.987C-403.27 228.853 -403.251 227.716 -403.594 226.623L-330.638 191.213L-296.179 271.874C-296.91 272.414 -297.645 273.181 -298.155 273.95ZM-507.102 242.397L-434.328 63.0861C-433.833 63.2261 -433.382 63.2295 -432.93 63.2328L-415.375 191.219L-505.502 243.909C-505.899 243.361 -506.433 242.857 -507.102 242.397ZM-343.619 75.8966L-347.358 146.046C-348.308 146.13 -349.307 146.532 -350.175 147.116L-428.2 61.0863C-427.83 60.5891 -427.508 60.1824 -427.317 59.593C-427.271 59.5024 -427.224 59.4119 -427.177 59.3213L-343.619 75.8966ZM-341.864 76.2278L-298.623 84.8672C-298.743 86.6389 -298.092 88.2345 -296.85 89.5619L-344.206 146.524L-344.295 146.478C-344.654 146.294 -345.058 146.2 -345.463 146.106L-341.864 76.2278ZM-288.639 89.8957L-273.525 106.734L-342.022 148.222C-342.244 147.993 -342.466 147.764 -342.777 147.489L-295.468 90.6176C-295.289 90.7098 -295.11 90.802 -294.931 90.8943C-292.779 91.7739 -290.378 91.2918 -288.639 89.8957ZM-272.283 108.062L-242.319 141.374C-242.688 141.871 -243.011 142.277 -243.201 142.867C-243.481 143.41 -243.582 144.046 -243.683 144.681L-340.842 150.549C-340.928 150.276 -341.013 150.002 -341.099 149.729L-272.283 108.062ZM-117.457 228.843C-117.64 228.978 -117.734 229.159 -117.78 229.249L-204.249 167.746L-232.179 147.858C-232.132 147.767 -232.039 147.586 -231.992 147.496C-230.721 144.369 -232.108 140.904 -235.066 139.609L-217.683 79.697C-216.468 79.9787 -215.247 79.806 -214.111 79.3599L-117.457 228.843ZM-22.457 170.871C-21.9401 169.648 -21.8745 168.421 -22.0814 167.283L50.968 139.829L-29.0107 184.913L-27.8484 174.74C-25.5877 174.53 -23.3976 173.137 -22.457 170.871ZM60.5217 140.854L58.0329 260.692L-33.3677 265.057C-33.5745 263.919 -34.1432 262.824 -34.9414 261.955L58.5017 140.157C58.6807 140.25 58.9493 140.388 59.1284 140.48C59.6226 140.62 60.1169 140.76 60.5217 140.854ZM63.4595 140.649L119.504 253.513C118.59 254.188 117.808 255.046 117.338 256.179C117.058 256.722 116.957 257.358 116.903 257.903L59.7956 260.569L62.3272 140.868C62.6891 140.825 63.0976 140.691 63.4595 140.649ZM124.65 264.415L156.162 334.963C155.158 335.592 154.33 336.54 153.813 337.764C153.529 338.534 153.382 339.26 153.371 339.942L62.9838 348.496C62.7304 347.449 62.1616 346.354 61.3168 345.575L120.144 263.927C120.323 264.019 120.412 264.065 120.591 264.157C121.981 264.758 123.335 264.769 124.65 264.415ZM183.986 461.708L149.063 471.447C148.408 470.079 147.345 468.844 145.82 468.287C145.551 468.149 145.325 468.147 145.057 468.009L159.946 346.309L160.082 346.264L183.986 461.708ZM184.318 463.483L199.944 539.14C199.536 539.273 199.217 539.453 198.898 539.632L147.961 477.984C148.42 477.533 148.746 476.899 149.073 476.265C149.497 475.223 149.605 474.133 149.531 473.178L184.318 463.483ZM186.041 462.996L272.622 438.96C272.926 439.689 273.456 440.42 274.032 441.061L270.148 446.623L204.859 539.495C204.77 539.449 204.591 539.357 204.501 539.31C203.559 538.94 202.703 538.843 201.8 538.836L186.041 462.996ZM280.741 442.111L301.008 474.896L206.556 540.598C206.467 540.552 206.424 540.416 206.334 540.369L271.809 447.135L275.507 441.936C275.686 442.028 275.776 442.074 275.955 442.166C277.477 442.95 279.24 442.827 280.741 442.111ZM301.931 476.403L362.334 574.21C361.692 574.796 361.047 575.609 360.67 576.561C360.623 576.652 360.577 576.742 360.577 576.742L208.107 545.064C208.216 543.974 207.962 542.927 207.526 542.015L301.931 476.403ZM303.436 475.459L381.492 421.134C381.936 421.592 382.563 421.915 383.189 422.238C383.726 422.515 384.267 422.564 384.898 422.66L366.104 572.829C365.291 572.868 364.52 573.044 363.793 573.357L303.436 475.459ZM484.265 490.349L438.832 524.009L389.711 421.014C389.94 420.788 390.216 420.472 390.446 420.247L484.277 484.168C484.138 484.44 483.998 484.711 483.858 484.983C483.061 486.75 483.299 488.706 484.265 490.349ZM438.109 526.731L462.798 578.639C461.658 579.312 460.694 580.305 460.13 581.619C460.037 581.8 459.99 581.891 459.987 582.118L372.38 578.239C372.348 577.421 372.044 576.691 371.74 575.962L438.109 526.731ZM401.142 643.131C400.741 642.81 400.204 642.533 399.666 642.256C398.366 641.701 396.923 641.645 395.608 641.999L377.454 601.593L459.798 585.344C459.922 585.981 460.183 586.574 460.581 587.122L401.142 643.131ZM252.03 626.704C252.077 626.614 251.988 626.568 252.034 626.477L375.73 602.081L394.059 642.805C393.056 643.434 392.227 644.383 391.71 645.606C391.617 645.787 391.524 645.968 391.52 646.195L252.03 626.704ZM184.962 568.663C185.149 568.301 185.425 567.985 185.522 567.577C185.662 567.305 185.759 566.897 185.809 566.579L213.765 568.605L242.315 621.814C242.269 621.905 242.179 621.858 242.132 621.949L184.962 568.663ZM-202.332 343.023L-71.2183 412.857L-61.4222 540.514C-61.9202 540.601 -62.3754 540.825 -62.8305 541.049L-202.332 343.023ZM-287.556 279.983C-287.462 279.802 -287.369 279.621 -287.276 279.44C-286.899 278.488 -286.747 277.535 -286.822 276.58L-222.503 261.014L-212.626 332.219C-213.579 332.53 -214.489 332.978 -215.224 333.745L-287.556 279.983ZM-296.52 80.5649C-297.162 81.151 -297.807 81.9643 -298.138 82.8254C-298.184 82.916 -298.231 83.0065 -298.278 83.0971L-341.833 74.4099L-338.792 16.3906C-338.205 16.3495 -337.524 16.1273 -336.932 15.859L-296.52 80.5649ZM-222.257 75.1632C-222.214 75.2999 -222.171 75.4366 -222.129 75.5732L-271.883 105.747L-287.442 88.4501C-287.255 88.0879 -287.115 87.8162 -286.928 87.454C-286.598 86.5929 -286.404 85.7762 -286.435 84.9578L-222.257 75.1632ZM-33.8529 166.605C-34.3774 168.283 -34.2248 169.966 -33.4379 171.517L-108.834 228.816C-109.368 228.312 -110.037 227.853 -110.753 227.484C-112.548 226.789 -114.447 226.956 -115.995 227.763L-212.605 78.4166C-212.01 77.9211 -211.504 77.3794 -211.178 76.7455L-211.224 76.8361L-33.8529 166.605ZM273.032 433.327C272.892 433.598 272.752 433.87 272.612 434.142C272.235 435.093 272.037 436.137 272.201 437.138L185.756 461.13L161.899 345.596C162.491 345.328 163.175 344.878 163.634 344.427L273.032 433.327ZM379.864 418.577C379.993 418.987 380.168 419.306 380.343 419.626L302.471 473.816L282.247 441.168C282.889 440.581 283.487 439.859 283.864 438.907C284.195 438.046 284.346 437.092 284.314 436.274L379.864 418.577ZM487.741 493.057L466.467 577.894C465.837 577.798 465.113 577.884 464.479 578.015L439.572 525.651L485.371 491.721C485.904 492.225 486.395 492.592 487.068 492.825C487.337 492.963 487.516 493.055 487.741 493.057Z" fill="url(#paint0_linear_24_3567)" fill-opacity="0.2"/>
</g>
<defs>
<filter id="filter0_f_24_3567" x="-520.331" y="0.278564" width="1020" height="657.659" filterUnits="userSpaceOnUse" color-interpolation-filters="sRGB">
<feFlood flood-opacity="0" result="BackgroundImageFix"/>
<feBlend mode="normal" in="SourceGraphic" in2="BackgroundImageFix" result="shape"/>
<feGaussianBlur stdDeviation="2" result="effect1_foregroundBlur_24_3567"/>
</filter>
<linearGradient id="paint0_linear_24_3567" x1="104.354" y1="149.885" x2="-94.3992" y2="535.7" gradientUnits="userSpaceOnUse">
<stop stop-color="#D8CC88"/>
<stop offset="1" stop-color="#7C633E"/>
</linearGradient>
</defs>
</svg>
