<svg width="559" height="846" viewBox="0 0 559 846" fill="none" xmlns="http://www.w3.org/2000/svg">
<path d="M836.77 795.006L883.168 720.63C885.383 721.265 887.965 720.682 889.627 718.742C891.795 716.155 891.538 712.289 888.976 710.151C887.126 708.582 884.55 708.306 882.466 709.245L812.458 619.355C814.483 616.769 814.152 613.118 811.662 610.908C809.1 608.769 805.23 609.071 803.062 611.657C802.484 612.376 802.048 613.237 801.827 614.026L705.453 601.441C705.394 599.794 704.762 598.15 703.338 597.01C701.488 595.441 699.055 595.164 696.971 596.104L619.871 478.024C620.015 477.881 620.231 477.665 620.376 477.521C622.544 474.934 622.287 471.068 619.725 468.93C618.657 468.003 617.3 467.507 616.011 467.512L607.639 390.701C608.787 390.41 609.866 389.761 610.733 388.755C612.901 386.168 612.644 382.302 610.082 380.163C608.944 379.165 607.515 378.741 606.082 378.747L587.402 253.921C588.479 253.559 589.486 252.982 590.28 252.048C592.449 249.461 592.191 245.595 589.629 243.457C587.067 241.318 583.197 241.62 581.029 244.206C580.162 245.212 579.724 246.36 579.572 247.507L495.964 251.487C495.687 250.199 495.052 248.984 493.914 247.986C491.708 246.061 488.557 246.073 486.252 247.801L344.932 107.988L344.282 108.635C346.45 106.048 346.193 102.182 343.631 100.044C341.069 97.9053 337.199 98.2069 335.031 100.794C334.597 101.368 334.163 101.943 333.943 102.588L269.709 92.2412C269.722 90.5224 269.018 88.8064 267.595 87.6661C266.314 86.5253 264.599 86.1023 263.022 86.2517L244.529 12.4163C245.32 12.0551 246.183 11.4788 246.762 10.7603C248.93 8.17364 248.673 4.30736 246.111 2.16893C243.548 0.0304987 239.679 0.332158 237.511 2.91886C236.499 4.06869 236.059 5.50275 236.048 6.93511L144.557 21.0446C144.207 19.9717 143.642 18.9713 142.717 18.1872C140.155 16.0487 136.285 16.3504 134.117 18.9371C132.094 21.2367 132.139 24.7458 134.2 26.9578L9.96798 175.333C7.47372 173.696 4.03273 174.139 2.00897 176.582C-0.159086 179.169 0.0981802 183.035 2.66027 185.173C5.22237 187.312 9.09199 187.01 11.2601 184.423C11.8384 183.705 12.2736 182.987 12.4944 182.198L102.505 193.447C102.492 195.166 103.267 196.81 104.619 198.022C106.895 200.018 110.334 199.862 112.569 197.919L199.383 272.059C197.788 274.644 198.192 277.937 200.469 279.933C202.39 281.573 205.039 281.777 207.267 280.694L259.71 354.11C259.565 354.253 259.421 354.397 259.277 354.541C257.109 357.128 257.366 360.994 259.928 363.132C262.205 365.129 265.571 365.044 267.806 363.102L340.95 597.286C340.159 597.647 339.511 598.151 339.005 598.798C336.837 601.384 337.094 605.251 339.656 607.389C342.218 609.528 346.088 609.226 348.256 606.639C349.051 605.705 349.489 604.558 349.641 603.411L553.584 597.096C553.789 598.456 554.495 599.742 555.563 600.669C556.559 601.525 557.773 602.021 559.133 602.087L565 688.219C563.708 688.51 562.629 689.159 561.69 690.237C559.522 692.824 559.779 696.69 562.341 698.828C564.12 700.325 566.481 700.674 568.493 699.807L606.651 768.122C606.362 768.41 606.002 768.626 605.785 768.985C603.617 771.572 603.874 775.438 606.436 777.577C608.998 779.715 612.868 779.413 615.036 776.827C615.18 776.683 615.324 776.539 615.398 776.324L742.199 837.631C741.466 839.926 742.092 842.43 744.013 844.069C746.575 846.208 750.445 845.906 752.613 843.319C753.986 841.667 754.432 839.517 753.802 837.585L827.402 802.634C827.685 803.206 828.182 803.705 828.609 804.134C831.171 806.272 835.04 805.97 837.208 803.384C839.447 801.011 839.26 797.216 836.77 795.006ZM486.677 257.897L481.871 268.372L401.822 284.729L484.546 255.614C484.899 256.257 485.395 256.9 485.964 257.471C486.178 257.541 486.392 257.755 486.677 257.897ZM335.256 108.957L300.201 160.802C298.845 160.162 297.342 160.097 295.979 160.46L277.807 119.997L333.984 106.67C334.193 107.457 334.688 108.243 335.256 108.957ZM239.16 12.0793L218.556 66.1589L144.386 24.7693C144.678 24.052 144.826 23.3353 144.832 22.6191L236.323 8.5096C236.673 9.58247 237.238 10.5829 238.163 11.367C238.519 11.7237 238.804 11.8658 239.16 12.0793ZM599.509 708.566L733.597 762.897C733.522 763.256 733.449 763.471 733.375 763.829L616.221 771.666C615.944 770.378 615.308 769.163 614.241 768.236C613.032 767.166 611.459 766.743 610.098 766.82L599.509 708.566ZM808.43 621.663L823.546 734.829L744.851 761.492C744.498 760.849 744.002 760.207 743.433 759.636C743.22 759.422 743.005 759.351 742.792 759.137L806.854 621.669C807.426 621.81 807.928 621.736 808.43 621.663ZM744.084 768.227C744.373 767.94 744.59 767.581 744.808 767.222L825.796 797.269L743.079 787.568L741.133 770.173C742.21 769.81 743.289 769.162 744.084 768.227ZM741.218 787.432L620.147 773.297L733.504 765.691C733.781 766.979 734.416 768.194 735.483 769.121C736.551 770.047 737.908 770.543 739.268 770.61L741.218 787.432ZM599.095 706.419L595.587 687.311C596.592 687.021 597.528 686.372 598.251 685.51C598.323 685.438 598.395 685.366 598.395 685.366L727.113 758.411L599.095 706.419ZM597.168 705.638L572.321 695.567C572.544 694.491 572.551 693.489 572.273 692.344L588.516 684.832C588.87 685.332 589.153 685.761 589.652 686.117C590.861 687.186 592.434 687.61 593.795 687.533L597.168 705.638ZM566.863 688.068L560.996 601.937C560.996 601.937 560.996 601.937 561.068 601.865L590.586 676.23C590.011 676.519 589.506 677.022 589.001 677.525C587.627 679.178 587.182 681.328 587.74 683.188L571.498 690.7C571.144 690.2 570.86 689.771 570.362 689.415C569.293 688.632 568.08 688.135 566.863 688.068ZM600.715 387.648L519.694 447.336C519.552 447.193 519.481 447.122 519.339 446.979C518.984 446.623 518.627 446.409 518.127 446.196L544.707 369.105L600.026 384.07C599.945 385.288 600.151 386.505 600.715 387.648ZM140.418 28.5806L188.319 134.385C187.815 134.745 187.383 135.033 187.021 135.536C185.938 136.757 185.424 138.407 185.484 139.91L116.186 155.222L138.626 28.8024C139.199 28.8002 139.844 28.726 140.418 28.5806ZM12.726 179.977L113.948 157.594L108.713 186.977C106.923 186.912 105.126 187.707 103.969 189.144C103.391 189.863 102.956 190.58 102.734 191.512L12.7238 180.264C12.7249 180.121 12.7971 180.049 12.726 179.977ZM114.481 191.323C114.411 191.108 114.342 190.751 114.201 190.465L187.033 143.485C187.246 143.699 187.459 143.913 187.673 144.127C188.811 145.125 190.24 145.549 191.672 145.544L194.851 179.907L114.481 191.323ZM196.772 181.547L291.695 168.14C291.975 168.998 292.327 169.785 292.967 170.427L207.779 269.806C206.924 269.237 205.923 268.954 204.85 268.887L196.772 181.547ZM555.055 592.077C554.982 592.149 554.91 592.221 554.838 592.293L427.814 522.536C428.107 521.675 428.256 520.815 428.192 519.885L527.993 495.931L557 590.566C556.281 590.855 555.561 591.431 555.055 592.077ZM444.312 338.919C443.298 340.355 442.999 342.075 443.345 343.721L391.32 347.649L389.933 294.3C390.937 294.153 391.87 293.791 392.734 293.215L444.312 338.919ZM424.006 514.673L439.389 421.726L509.432 450.169C509.062 451.675 509.266 453.178 509.972 454.464L508.388 455.616L426.43 516.096C426.288 515.953 426.217 515.882 426.075 515.739C425.434 515.24 424.721 514.813 424.006 514.673ZM439.69 419.863L451.62 347.985C451.908 347.841 452.195 347.696 452.483 347.552L511.533 446.939C511.316 447.154 511.028 447.442 510.739 447.729C510.523 447.945 510.305 448.304 510.16 448.591L439.69 419.863ZM437.976 419.154L397.636 402.769C398.007 401.12 397.662 399.331 396.67 397.903L417.014 378.343L448.108 348.357C448.609 348.427 449.182 348.424 449.755 348.422L437.976 419.154ZM391.378 349.439L444.048 345.437C444.33 346.008 444.827 346.508 445.325 347.007C445.609 347.293 445.966 347.506 446.251 347.648L416.023 376.771L395.463 396.547C394.609 395.834 393.537 395.48 392.536 395.341L391.378 349.439ZM516.251 457.591L527.505 494.143L427.847 518.096C427.777 517.881 427.707 517.666 427.565 517.524L511.036 455.821C511.178 455.964 511.249 456.035 511.392 456.178C512.742 457.533 514.53 457.884 516.251 457.591ZM421.43 514.397L394.095 407.008C394.885 406.647 395.677 406.142 396.255 405.424C396.544 405.136 396.762 404.777 396.907 404.49L437.533 421.017L422.003 514.394C421.931 514.323 421.716 514.396 421.43 514.397ZM387.076 397.511C386.788 397.798 386.57 398.157 386.353 398.516L269.913 359.154C269.986 358.939 269.987 358.796 269.989 358.51L389.516 349.446L390.674 395.348C389.382 395.639 388.088 396.361 387.076 397.511ZM269.859 356.791C269.861 356.505 269.72 356.219 269.65 356.004L384.435 292.102C384.719 292.387 384.932 292.601 385.217 292.886C386.071 293.599 387.07 294.025 388.143 294.236L389.529 347.728L269.859 356.791ZM110.573 187.256L115.884 157.228L185.9 141.771C185.971 141.842 185.97 141.985 186.041 142.057L168.337 153.441L113.209 189.036C112.996 188.822 112.782 188.608 112.569 188.394C112.001 187.824 111.215 187.469 110.573 187.256ZM196.571 179.757L193.393 145.25C194.47 144.888 195.478 144.311 196.272 143.377C196.634 142.874 196.996 142.372 197.287 141.798L291.57 165.705C291.569 165.849 291.496 166.064 291.566 166.278L196.571 179.757ZM395.353 287.905L480.997 270.381L451.063 336.457C449.205 335.891 447.196 336.329 445.611 337.624L394.104 291.992C394.901 290.772 395.342 289.337 395.353 287.905ZM483.148 269.943L579.91 250.155C579.98 250.37 580.05 250.584 580.12 250.799L453.843 338.093C453.701 337.951 453.488 337.737 453.346 337.594C453.132 337.38 452.847 337.238 452.705 337.095L483.148 269.943ZM453.925 346.257C454.358 345.826 454.649 345.252 454.867 344.75L543.063 368.61L516.485 445.558C515.34 445.42 514.122 445.496 513.116 445.93L453.925 346.257C453.853 346.329 453.853 346.329 453.925 346.257ZM519.99 455.571C520.424 454.996 520.858 454.422 521.078 453.776L609.736 473.338C609.662 473.696 609.731 474.054 609.8 474.411L529.226 493.849L517.973 457.154C518.692 456.722 519.341 456.218 519.99 455.571ZM612.845 478.911L561.443 590.118C560.586 589.835 559.727 589.839 558.795 589.914L529.787 495.423L610.289 476.057C610.641 476.843 611.137 477.486 611.849 478.056C612.133 478.484 612.489 478.698 612.845 478.911ZM553.526 595.306L349.583 601.621C349.447 600.619 349.024 599.761 348.385 598.976L418.48 525.58C420.974 527.361 424.558 526.917 426.653 524.546C426.725 524.474 426.797 524.402 426.869 524.33L553.894 594.087C553.748 594.374 553.602 594.804 553.526 595.306ZM345.893 597.052L375.4 473.684L417.257 516.848C415.593 519.075 415.569 522.226 417.201 524.296L347.106 597.692C346.749 597.478 346.322 597.193 345.893 597.052ZM375.846 471.534L391.155 407.521C391.584 407.519 392.014 407.517 392.444 407.516L419.707 514.833C419.277 514.978 418.917 515.194 418.485 515.482L375.846 471.534ZM374.426 469.964L269.037 361.306C269.182 361.163 269.183 361.019 269.327 360.875L385.767 400.237C385.321 402.387 385.949 404.605 387.728 406.102C388.297 406.529 388.796 406.885 389.439 407.098L374.426 469.964ZM265.882 352.367L278.379 281.346L383.24 289.17C383.307 289.671 383.375 290.172 383.658 290.601L268.946 354.431C268.734 354.074 268.45 353.789 268.022 353.504C267.31 352.934 266.525 352.579 265.882 352.367ZM278.607 279.555L297.391 172.558C298.394 172.554 299.47 172.335 300.405 171.83L302.39 174.4L384.564 284.438C383.842 285.3 383.404 286.305 383.181 287.38L278.607 279.555ZM276.818 279.347L210.609 274.379C210.476 273.09 210.056 271.803 209.204 270.803L294.392 171.424C294.819 171.708 295.319 171.921 295.748 172.063L276.818 279.347ZM200.542 270.336L113.728 196.196C114.308 195.191 114.675 194.115 114.683 192.969L194.981 181.625L203.059 268.965C202.197 269.255 201.262 269.76 200.542 270.336ZM11.3217 176.259L135.553 27.8835C135.981 28.1683 136.41 28.3098 136.838 28.4514L114.32 155.659L12.3814 178.188C12.1714 177.545 11.8182 176.901 11.3217 176.259ZM217.97 67.8799L192.909 133.507C191.98 133.296 190.905 133.372 189.9 133.662L141.999 27.8582C142.503 27.4981 142.935 27.21 143.297 26.7072C143.369 26.6353 143.441 26.5634 143.513 26.4915L217.97 67.8799ZM219.539 68.7332L258.05 90.2101C257.393 91.8599 257.524 93.5782 258.299 95.2223L195.763 134.928L195.692 134.857C195.408 134.572 195.051 134.358 194.695 134.145L219.539 68.7332ZM266.012 98.0567L275.238 118.718L197.322 137.214C197.18 136.928 197.039 136.642 196.827 136.285L259.291 96.6507C259.433 96.7934 259.575 96.9361 259.717 97.0788C261.496 98.5757 263.929 98.8526 266.012 98.0567ZM276.014 120.362L294.325 161.254C293.821 161.614 293.389 161.903 293.027 162.405C292.595 162.837 292.304 163.411 292.013 163.985L197.732 139.791C197.734 139.504 197.736 139.218 197.738 138.931L276.014 120.362ZM386.367 282.784C386.152 282.856 386.008 283 385.935 283.072L322.48 198.026L301.99 170.534C302.062 170.462 302.206 170.319 302.279 170.247C304.447 167.66 304.188 163.937 301.769 161.798L336.68 110.097C337.749 110.738 338.965 110.948 340.183 110.871L386.367 282.784ZM494.564 256.721C495.431 255.715 495.869 254.567 496.021 253.421L573.97 249.677L484.022 268.077L488.246 258.751C490.463 259.243 492.974 258.589 494.564 256.721ZM582.749 253.581L543.649 366.889L455.31 343.029C455.462 341.883 455.256 340.666 454.763 339.594L581.04 252.299C581.182 252.442 581.395 252.656 581.537 252.798C581.965 253.083 582.393 253.368 582.749 253.581ZM585.608 254.286L604.362 378.897C603.285 379.259 602.278 379.836 601.483 380.77C601.05 381.201 600.76 381.775 600.541 382.278L545.365 367.312L584.464 254.148C584.821 254.218 585.251 254.216 585.608 254.286ZM605.919 390.851L614.291 467.662C613.143 467.953 612.064 468.602 611.197 469.608C610.691 470.254 610.328 470.9 610.108 471.546L521.45 451.984C521.529 450.91 521.324 449.693 520.758 448.693L601.779 389.005C601.921 389.147 601.992 389.219 602.135 389.361C603.273 390.36 604.559 390.784 605.919 390.851ZM601.928 596.835L565.701 595.401C565.497 593.898 564.864 592.397 563.582 591.399C563.369 591.185 563.155 591.114 562.941 590.9L614.416 479.621L614.559 479.621L601.928 596.835ZM601.7 598.626L593.385 675.431C592.955 675.433 592.597 675.506 592.238 675.579L562.648 601.286C563.223 600.997 563.728 600.494 564.234 599.991C564.956 599.128 565.394 598.124 565.615 597.192L601.7 598.626ZM603.49 598.691L693.271 602.349C693.337 603.136 693.617 603.994 693.969 604.781L688.566 608.884L597.955 677.275C597.884 677.204 597.742 677.061 597.67 676.99C596.888 676.348 596.102 675.994 595.245 675.71L603.49 598.691ZM700.033 607.837L709.276 645.256L599.232 678.846C599.161 678.775 599.162 678.631 599.091 678.56L689.991 609.881L695.105 606.065C695.247 606.208 695.318 606.28 695.46 606.422C696.669 607.635 698.384 608.058 700.033 607.837ZM709.693 646.973L737.21 758.586C736.42 758.947 735.556 759.524 734.905 760.314C734.833 760.386 734.761 760.458 734.761 760.458L599.34 683.572C599.777 682.568 599.857 681.493 599.721 680.491L709.693 646.973ZM711.415 646.536L802.364 618.75C802.646 619.322 803.144 619.821 803.642 620.321C804.068 620.749 804.568 620.962 805.139 621.246L741.222 758.427C740.436 758.215 739.648 758.147 738.86 758.222L711.415 646.536ZM878.976 716.134L825.412 734.248L810.224 621.154C810.512 621.01 810.871 620.794 811.159 620.649L880.882 710.254C880.666 710.47 880.449 710.686 880.233 710.901C878.933 712.339 878.56 714.274 878.976 716.134ZM823.89 736.618L831.481 793.595C830.19 793.886 828.968 794.535 828.028 795.613C827.884 795.757 827.812 795.829 827.739 796.044L745.537 765.5C745.758 764.712 745.692 763.924 745.627 763.137L823.89 736.618ZM753.025 836.085C752.742 835.656 752.316 835.228 751.889 834.8C750.822 833.873 749.465 833.377 748.105 833.311L743.209 789.286L826.57 799.057C826.494 799.702 826.56 800.346 826.77 800.99L753.025 836.085ZM616.126 774.745C616.198 774.674 616.127 774.602 616.199 774.53L741.419 789.221L746.384 833.604C745.236 833.895 744.156 834.544 743.289 835.55C743.145 835.694 743.001 835.837 742.927 836.053L616.126 774.745ZM570.075 698.941C570.364 698.654 570.723 698.437 570.941 698.078C571.157 697.863 571.375 697.504 571.52 697.217L597.51 707.714L608.377 767.113C608.305 767.185 608.234 767.113 608.162 767.185L570.075 698.941ZM270.582 365.454L373.98 472.114L344.177 596.629C343.677 596.559 343.175 596.633 342.673 596.706L270.582 365.454ZM208.781 279.327C208.926 279.184 209.07 279.04 209.214 278.896C209.865 278.106 210.301 277.244 210.523 276.313L276.518 281.21L264.094 352.016C263.092 352.02 262.088 352.167 261.153 352.672L208.781 279.327ZM261.371 86.7595C260.58 87.1207 259.717 87.697 259.138 88.4154C259.066 88.4873 258.994 88.5592 258.922 88.6311L220.125 67.0121L240.803 12.7174C241.375 12.8584 242.091 12.8555 242.736 12.7814L261.371 86.7595ZM333.715 104.38C333.714 104.523 333.713 104.666 333.712 104.809L277.104 118.281L267.595 97.0478C267.884 96.7602 268.101 96.5445 268.389 96.2569C268.968 95.5385 269.403 94.8206 269.624 94.032L333.715 104.38ZM485.024 249.167C484.011 250.603 483.64 252.252 483.914 253.969L394.584 285.402C394.23 284.758 393.734 284.116 393.165 283.545C391.67 282.333 389.812 281.911 388.091 282.204L341.905 110.435C342.624 110.146 343.271 109.785 343.776 109.282L343.704 109.354L485.024 249.167ZM695.387 597.112C695.171 597.328 694.955 597.544 694.738 597.759C694.088 598.55 693.579 599.483 693.428 600.486L603.79 596.827L616.493 479.542C617.138 479.467 617.928 479.25 618.503 478.961L695.387 597.112ZM801.599 615.817C801.595 616.247 801.664 616.604 801.733 616.962L710.999 644.676L701.755 607.4C702.546 607.039 703.338 606.535 703.988 605.744C704.566 605.026 705.003 604.165 705.223 603.376L801.599 615.817ZM881.455 719.777L835.202 794.01C834.632 793.725 833.916 793.585 833.272 793.516L825.614 736.038L879.608 717.779C879.961 718.422 880.316 718.922 880.885 719.349C881.099 719.563 881.241 719.706 881.455 719.777Z" fill="url(#paint0_linear_24_3568)" fill-opacity="0.4"/>
<defs>
<linearGradient id="paint0_linear_24_3568" x1="621.703" y1="275.612" x2="314.263" y2="581.939" gradientUnits="userSpaceOnUse">
<stop stop-color="#D8CC88"/>
<stop offset="1" stop-color="#7C633E"/>
</linearGradient>
</defs>
</svg>
