<svg width="465" height="883" viewBox="0 0 465 883" fill="none" xmlns="http://www.w3.org/2000/svg">
<path d="M52.4685 32.9774C49.857 34.4852 48.9495 37.8721 50.4572 40.4836C50.7588 41.0059 51.1764 41.4611 51.5605 41.8584L8.74554 101.32C7.10443 100.488 5.15103 100.455 3.46806 101.427C0.856582 102.934 -0.0509212 106.321 1.45682 108.933C2.596 110.906 4.78635 111.885 6.90486 111.668L40.9825 234.754C40.8083 234.855 40.6342 234.955 40.4601 235.056C37.8487 236.564 36.9411 239.951 38.4488 242.562C39.9566 245.174 43.3435 246.081 45.955 244.573C46.3032 244.372 46.5599 244.147 46.8746 243.888L101.336 289.434C100.297 291.118 100.215 293.255 101.253 295.054C102.761 297.665 106.148 298.573 108.759 297.065C109.804 296.462 110.59 295.544 111.067 294.495L186.477 314.406C186.365 315.554 186.553 316.683 187.19 317.786C187.86 318.947 188.869 319.757 190.035 320.167L151.764 500.345C150.708 500.258 149.611 500.504 148.683 501.04C146.071 502.548 145.164 505.935 146.672 508.546C148.179 511.157 151.566 512.065 154.178 510.557C154.874 510.155 155.446 509.671 155.858 509.045L352.017 613.997C349.955 615.652 349.353 618.63 350.727 621.009C352.235 623.621 355.621 624.528 358.233 623.021C358.407 622.92 358.523 622.853 358.697 622.753L415.414 681.854C414.075 683.556 413.861 686 415 687.973C416.374 690.353 419.312 691.287 421.777 690.329L473.676 780.222C471.556 781.91 470.954 784.888 472.328 787.268C473.132 788.661 474.508 789.569 475.997 789.87L471.516 871.768C470.768 871.813 470.004 872.099 469.366 872.468C466.755 873.976 465.847 877.363 467.355 879.974C468.862 882.586 472.249 883.493 474.861 881.985C477.298 880.578 478.233 877.64 477.183 875.151L628.609 790.046C630.24 792.2 633.309 792.826 635.689 791.453C638.3 789.945 639.208 786.558 637.7 783.947C637.164 783.018 636.371 782.315 635.471 781.829L662.649 702.921C663.863 703.148 665.234 702.976 666.394 702.306C669.006 700.798 669.913 697.411 668.406 694.799C666.898 692.188 663.511 691.28 660.899 692.788C660.145 693.224 659.491 693.833 659.054 694.55L596.42 665.406C596.846 663.999 596.722 662.445 595.918 661.052C595.081 659.602 593.705 658.693 592.216 658.393L593.309 599.574C593.932 599.446 594.521 599.261 595.101 598.926C597.713 597.418 598.62 594.031 597.113 591.42C595.605 588.808 592.218 587.901 589.607 589.408L590.269 588.948L488.982 439.514C490.861 437.81 491.323 434.99 490.016 432.727C489.379 431.624 488.37 430.814 487.263 430.37L504.19 356.761C505.246 356.848 506.376 356.66 507.42 356.057C510.032 354.549 510.939 351.162 509.431 348.551C507.924 345.939 504.537 345.032 501.925 346.539C500.997 347.075 500.294 347.868 499.807 348.768L392.242 310.822C392.528 309.574 392.297 308.237 391.594 307.018C390.086 304.407 386.699 303.499 384.088 305.007C383.101 305.576 382.34 306.403 381.829 307.394L315.061 286.904C315.231 285.723 315.034 284.443 314.397 283.341C312.889 280.729 309.502 279.822 306.891 281.33C306.717 281.43 306.543 281.531 306.344 281.723L213.897 193.032C215.028 191.373 215.193 189.112 214.087 187.197C213.283 185.804 211.965 184.862 210.476 184.561L214.815 96.7868C215.621 96.7085 216.418 96.4805 217.114 96.0784C219.725 94.5707 220.633 91.1838 219.125 88.5723C217.651 86.0188 214.414 85.1023 211.793 86.4605L143.375 8.96733C144.564 7.27475 144.729 5.01324 143.623 3.09815C142.115 0.486667 138.729 -0.420859 136.117 1.08688C134.144 2.22606 133.131 4.35838 133.406 6.44339L59.9992 34.8971C58.4334 32.3192 55.08 31.4697 52.4685 32.9774ZM480.499 438.222C480.867 438.86 481.318 439.373 481.885 439.82L442.802 508.424L470.1 440.047L480.163 437.641C480.322 437.782 480.365 437.99 480.499 438.222ZM589.882 598.999L569.082 646.601L536.057 623.575C536.617 622.401 536.801 620.979 536.455 619.709L588.104 597.394C588.507 598.091 589.199 598.62 589.882 598.999ZM658.98 700.319C659.516 701.247 660.309 701.95 661.208 702.437L634.031 781.345C633.366 781.265 632.701 781.184 632.02 781.345L607.259 708.437L658.502 699.357C658.669 699.647 658.779 699.971 658.98 700.319ZM48.6574 241.079C48.9673 239.739 48.7949 238.368 48.0578 237.092C47.4212 235.989 46.5034 235.204 45.396 234.76L71.1121 132.012C71.3532 132.027 71.6859 132.067 71.9851 132.049L98.6973 260.472L48.6574 241.079ZM208.913 90.9866L76.7801 124.406C76.6796 124.232 76.6036 123.967 76.5031 123.792C76.1345 123.154 75.6499 122.583 75.0827 122.136L111.239 56.7699L209.155 89.531C209.033 89.9887 208.944 90.5044 208.913 90.9866ZM66.647 124.144L51.4737 119.44L56.1177 44.2568L69.8094 121.312C69.4857 121.422 69.1041 121.565 68.8139 121.732C67.9189 122.326 67.1579 123.152 66.647 124.144ZM66.23 125.7C66.0607 126.881 66.2576 128.16 66.9277 129.321C67.5643 130.423 68.4821 131.209 69.5895 131.653L44.6983 231.139L51.5144 121.119L66.23 125.7ZM74.9898 138.594L119.108 265.401C119.05 265.434 118.992 265.468 118.934 265.501C118.063 266.004 117.385 266.705 116.865 267.547L100.421 261.179L74.9898 138.594ZM116.298 269.112C115.989 270.452 116.161 271.822 116.898 273.099C117.166 273.563 117.492 273.994 117.843 274.333L108.576 287.499C107.709 287.07 106.736 286.859 105.78 286.946L100.837 263.105L116.298 269.112ZM110.896 289.641C110.628 289.177 110.302 288.746 109.951 288.407L119.218 275.242C120.826 276.016 122.779 276.049 124.462 275.077C124.984 274.775 125.44 274.358 125.862 273.882L187.043 312.841C187.043 312.841 186.985 312.875 187.019 312.933L111.609 293.021C111.72 291.873 111.499 290.686 110.896 289.641ZM386.502 315.219L390.896 366.924L318.274 377.437C318.131 377.056 317.988 376.674 317.753 376.268C317.686 376.152 317.586 375.977 317.519 375.861L383.43 314.053C384.314 314.78 385.388 315.166 386.502 315.219ZM627.577 785.845L511.895 784.232L536.576 725.259C537.915 725.569 539.378 725.421 540.654 724.684C541.119 724.416 541.549 724.09 541.889 723.739L628.085 784.314C627.871 784.747 627.666 785.329 627.577 785.845ZM473.203 871.877L477.685 789.979C478.432 789.934 479.229 789.706 479.926 789.304C481.435 788.432 482.367 786.965 482.635 785.418L509.5 785.847L473.42 871.984C473.295 871.902 473.295 871.902 473.203 871.877ZM502.555 710.158L532.558 718.835C532.272 720.083 532.503 721.42 533.206 722.639C533.34 722.871 533.474 723.103 533.666 723.302L480.358 780.001C480.108 779.836 479.949 779.695 479.675 779.622L502.555 710.158ZM425.365 686.09C425.461 685.184 425.373 684.229 425.02 683.349L526.752 624.614C527.27 625.244 527.871 625.748 528.612 626.094L501.566 708.176L425.365 686.09ZM196.502 318.368L275.725 360.297L238.441 444.885C237.675 444.631 236.835 444.651 236.063 444.788L194.531 320.047C194.589 320.014 194.705 319.947 194.763 319.913C195.517 319.478 196.055 318.935 196.502 318.368ZM433.829 514.997C433.175 515.607 432.713 516.415 432.435 517.273L385.345 507.009L397.169 461.417C398.526 462.026 400.147 462.019 401.549 461.364L433.829 514.997ZM241.743 447.389C241.676 447.273 241.609 447.157 241.509 446.983L308.281 384.522L309.531 383.336C310.574 384.204 311.947 384.572 313.293 384.491L327.348 451.587L242.467 449.447C242.398 448.791 242.145 448.085 241.743 447.389ZM314.896 384.185C315.22 384.075 315.452 383.941 315.742 383.774C316.032 383.606 316.289 383.381 316.521 383.247L395.201 452.648C395.003 452.84 394.838 453.091 394.672 453.341L329.036 451.696L314.896 384.185ZM393.956 454.915C393.834 455.372 393.745 455.888 393.771 456.337L362.221 478.886L341.607 493.573C340.488 492.439 338.981 491.839 337.451 491.871L329.342 453.299L393.956 454.915ZM343.146 497.714C343.208 496.749 342.971 495.803 342.527 494.899L363.34 480.02L394.029 458.123C394.138 458.446 394.306 458.737 394.473 459.027C394.808 459.607 395.226 460.062 395.668 460.426L383.697 506.568L343.146 497.714ZM308.236 381.763C308.303 381.879 308.37 381.995 308.47 382.169L240.448 445.815C240.289 445.675 240.164 445.592 239.948 445.485L277.149 361.022L307.783 377.226C307.299 378.666 307.398 380.312 308.236 381.763ZM242.416 451.101L327.688 453.248L335.849 492.177C335.525 492.287 335.201 492.396 334.853 492.597C334.099 493.033 333.503 493.609 333.09 494.234L242.211 451.684C242.352 451.525 242.401 451.342 242.416 451.101ZM342.821 499.294L383.313 508.182L356.185 612.906C356.002 612.857 355.794 612.9 355.611 612.85L339.361 502.684C339.743 502.541 340.067 502.432 340.415 502.231C341.634 501.527 342.41 500.46 342.821 499.294ZM384.928 508.566L432.143 518.911C432.139 519.842 432.351 520.88 432.854 521.751C433.021 522.041 433.247 522.298 433.414 522.588L358.366 613.736C358.15 613.629 357.899 613.464 357.683 613.357L384.928 508.566ZM481.903 781.739C481.769 781.507 481.635 781.275 481.443 781.077L521.888 738.149L534.843 724.402C534.935 724.427 535.002 724.543 535.093 724.567L510.149 784.157L482.627 783.798C482.525 783.083 482.305 782.436 481.903 781.739ZM530.144 626.602C530.327 626.651 530.476 626.642 530.66 626.691L536.802 714.527C536.271 714.679 535.74 714.831 535.218 715.133C534.289 715.669 533.586 716.462 533.1 717.362L503.097 708.685L530.144 626.602ZM435.155 514.077L402.908 460.502C404.249 459.341 404.923 457.559 404.791 455.856L468.174 440.463L438.968 513.578C437.72 513.293 436.349 513.465 435.155 514.077ZM404.393 454.228C404.317 453.963 404.216 453.789 404.082 453.556C403.982 453.382 403.881 453.208 403.723 453.068L501.392 355.668C501.551 355.809 501.768 355.916 501.893 355.998L468.906 438.647L404.393 454.228ZM396.46 451.612L317.621 382.07C318.199 381.195 318.527 380.154 318.522 379.074L391.053 368.536L398.011 450.949C397.538 451.067 397.04 451.277 396.518 451.579C396.518 451.579 396.518 451.579 396.46 451.612ZM308.567 375.768L277.841 359.539L307.908 291.266C308.216 291.397 308.548 291.438 308.881 291.478L311.982 373.642C311.359 373.769 310.769 373.955 310.247 374.256C309.551 374.658 308.979 375.143 308.567 375.768ZM304.846 288.778C305.248 289.474 305.824 290.07 306.45 290.483L276.383 358.756L197.285 316.91C197.539 316.144 197.644 315.387 197.532 314.523L304.426 287.782C304.536 288.106 304.679 288.487 304.846 288.778ZM192.995 320.47L234.527 445.21C234.469 445.244 234.353 445.311 234.295 445.344C231.8 446.785 230.874 449.873 232.049 452.444L155.72 502.239C155.11 501.585 154.327 501.031 153.527 500.719L191.74 320.575C192.131 320.581 192.58 320.555 192.995 320.47ZM156.491 503.573L232.82 453.779C234.432 455.633 237.17 456.22 239.442 455.062L271.059 499.639L156.895 504.81C156.81 504.395 156.725 503.98 156.491 503.573ZM240.826 454.109C241.14 453.85 241.388 453.475 241.611 453.191L332.432 495.775C332.334 496.141 332.236 496.507 332.229 496.898L273.037 499.58L240.826 454.109ZM332.294 498.485C332.388 499.05 332.574 499.639 332.909 500.22C333.948 502.019 335.839 503.016 337.759 502.991L354.008 613.157C353.892 613.224 353.743 613.233 353.627 613.3L274.149 501.105L332.294 498.485ZM360.369 615.597C360.168 615.249 359.909 614.934 359.684 614.678L434.674 523.563C435.049 523.811 435.482 524.025 435.94 524.147L426.029 618.621L361.06 617.597C360.99 616.941 360.771 616.293 360.369 615.597ZM437.52 524.473C438.485 524.535 439.489 524.265 440.36 523.762L524.767 615.547L526.696 617.683C526.109 618.408 525.715 619.333 525.561 620.272L427.625 618.705L437.52 524.473ZM525.626 621.86C525.653 622.308 525.829 622.748 525.973 623.13L424.183 681.898C423.406 680.954 422.405 680.294 421.215 679.975L427.449 620.277L525.626 621.86ZM424.857 687.622L500.966 709.683L478.052 779.089C477.112 778.935 476.065 778.998 475.069 779.418L423.27 689.699C424.015 689.114 424.544 688.421 424.857 687.622ZM474.894 872.526L511.179 785.806L627.526 787.499C627.611 787.915 627.696 788.33 627.839 788.711L476.354 873.85C475.961 873.303 475.485 872.881 474.894 872.526ZM630.518 781.826C630.46 781.859 630.343 781.926 630.285 781.96C629.821 782.228 629.39 782.554 629.051 782.905L542.855 722.33C543.259 721.555 543.47 720.582 543.417 719.684L605.589 708.627L630.518 781.826ZM543.144 718.14C543.034 717.816 542.891 717.434 542.724 717.144C542.69 717.086 542.69 717.086 542.657 717.028L587.879 668.17C589.105 669.087 590.661 669.504 592.206 669.231L605.108 707.125L543.144 718.14ZM586.493 666.572C586.593 666.746 586.66 666.862 586.761 667.036L541.62 715.769C541.428 715.571 541.145 715.347 540.895 715.182L569.799 649.05L586.658 660.828C585.56 662.545 585.42 664.715 586.493 666.572ZM539.388 714.582C539.113 714.509 538.93 714.46 538.689 714.444L532.271 626.535C532.803 626.383 533.334 626.231 533.856 625.929C534.32 625.661 534.751 625.335 535.148 624.951L568.457 648.2L539.388 714.582ZM587.103 592.711C586.867 593.776 586.905 594.915 587.267 595.944L535.733 618.191C534.201 615.671 530.848 614.821 528.294 616.296C528.178 616.363 528.062 616.43 527.946 616.497L506.907 593.592L441.677 522.692C441.759 522.567 441.9 522.409 442.016 522.342L587.103 592.711ZM479.824 435.981L470.857 438.14L501.55 361.303L485.706 429.953C484.65 429.867 483.521 430.055 482.476 430.658C480.595 431.821 479.606 433.862 479.824 435.981ZM499.88 353.988C499.981 354.162 500.081 354.336 500.24 354.476L402.57 451.876C401.72 451.206 400.679 450.879 399.623 450.792L392.598 368.263L499.418 352.784C499.536 353.258 499.679 353.639 499.88 353.988ZM499.203 351.206L392.475 366.709L388.089 315.154C388.563 315.036 389.06 314.826 389.583 314.524C390.511 313.988 391.214 313.195 391.7 312.295L499.29 350.15C499.192 350.516 499.185 350.907 499.203 351.206ZM382.076 312.513C382.143 312.629 382.244 312.803 382.311 312.919L316.4 374.728C315.583 374.116 314.625 373.663 313.569 373.577L310.444 291.504C311.1 291.434 311.748 291.216 312.386 290.847C313.372 290.277 314.133 289.451 314.644 288.46L381.412 308.95C381.209 310.073 381.406 311.352 382.076 312.513ZM304.144 286.088C304.178 286.146 304.12 286.179 304.153 286.237L197.201 313.012C197.067 312.78 197.024 312.572 196.89 312.34C196.153 311.063 194.961 310.204 193.646 309.803L198.156 277.408L304.144 286.088ZM192.041 309.569C191.11 309.565 190.163 309.802 189.351 310.271C188.828 310.572 188.373 310.99 187.951 311.466L126.77 272.507C126.901 272.198 126.999 271.832 127.131 271.524L196.584 277.233L192.041 309.569ZM127.215 269.928C127.137 269.122 126.967 268.292 126.531 267.537C126.464 267.421 126.397 267.305 126.33 267.189L201.486 198.341L205.981 194.198C206.582 194.702 207.231 195.024 207.964 195.22L196.785 275.569L127.215 269.928ZM204.57 192.692C204.637 192.808 204.704 192.924 204.771 193.04L200.557 196.865L125.145 265.939C125.053 265.915 124.986 265.799 124.895 265.774L172.327 173.702L204.035 188.281C203.642 189.745 203.765 191.299 204.57 192.692ZM123.47 265.049C122.579 264.712 121.615 264.65 120.668 264.887L74.2017 131.466C74.2597 131.433 74.3177 131.399 74.3758 131.366C75.1302 130.93 75.7841 130.32 76.2214 129.604L170.82 173.102L123.47 265.049ZM76.9711 128.088C77.2008 127.413 77.2474 126.69 77.1445 125.976L209.069 92.5984C209.188 93.0716 209.398 93.5694 209.666 94.0337C210.001 94.614 210.419 95.0693 210.861 95.433L171.627 171.552L76.9711 128.088ZM141.612 10.6043C141.844 10.4703 142.076 10.3362 142.275 10.1442L210.525 87.3472C210.269 87.5728 210.104 87.8228 209.881 88.1064L112.055 55.3699L136.734 10.867C138.217 11.5586 140.045 11.5089 141.612 10.6043ZM73.5667 121.387C72.8924 121.157 72.1936 121.019 71.5038 121.03L57.5571 42.7294C57.6732 42.6624 57.8473 42.5618 57.9633 42.4948C59.066 41.8582 59.876 40.8489 60.3199 39.7415L109.615 56.2369L73.5667 121.387ZM52.936 42.7666C53.4607 43.0053 54.0099 43.1524 54.5837 43.2081L49.8841 118.965L11.6719 107.059C11.8412 105.878 11.6443 104.599 10.9742 103.438C10.7062 102.974 10.4136 102.601 10.063 102.262L52.936 42.7666ZM8.53219 111.27C8.7063 111.17 8.88039 111.069 9.05447 110.969C10.041 110.399 10.802 109.573 11.2549 108.615L49.8333 120.62L42.7593 234.347C42.7013 234.381 42.6098 234.356 42.5517 234.39L8.53219 111.27ZM47.9748 242.711C48.0328 242.677 47.9993 242.619 48.0573 242.586L99.0216 262.373L104.178 287.252C103.854 287.362 103.622 287.496 103.332 287.663C102.983 287.865 102.727 288.09 102.412 288.349L47.9748 242.711ZM156.742 507.761C156.898 507.362 157.021 506.904 156.994 506.455L272.204 501.221L350.201 611.254L156.742 507.761ZM359.989 621.774C360.576 621.049 360.947 620.216 361.042 619.309L425.862 620.342L419.619 679.89C418.78 679.911 417.925 680.172 417.112 680.641C416.938 680.742 416.822 680.809 416.648 680.909L359.989 621.774ZM658.478 695.966C658.331 696.515 658.217 697.122 658.253 697.72L606.745 706.877L593.766 668.717C593.825 668.684 593.941 668.617 593.999 668.583C594.753 668.148 595.407 667.538 595.844 666.821L658.478 695.966ZM590.711 658.333C589.964 658.378 589.2 658.664 588.504 659.066C588.214 659.233 587.957 659.459 587.667 659.626L570.341 647.577L591.356 599.541C591.447 599.566 591.63 599.615 591.78 599.606L590.711 658.333ZM589.06 589.802L589.118 589.768C588.571 590.161 588.091 590.67 587.794 591.229L442.832 520.942C443.432 519.435 443.358 517.698 442.487 516.189C442.119 515.551 441.667 515.037 441.1 514.591L483.31 440.545C484.692 441.062 486.313 441.055 487.681 440.343L589.06 589.802ZM305.235 282.75C304.847 283.284 304.55 283.842 304.378 284.483L198.356 275.745L209.477 195.429C210.375 195.375 211.263 195.172 212.076 194.703C212.308 194.569 212.598 194.401 212.797 194.209L305.235 282.75ZM208.88 184.477C208.074 184.556 207.277 184.783 206.581 185.186C205.826 185.621 205.23 186.197 204.76 186.856L173.052 172.277L212.145 96.3167C212.453 96.4483 212.819 96.5464 213.185 96.6445L208.88 184.477ZM134.072 8.53498C134.407 9.11531 134.825 9.5706 135.301 9.99238L110.432 54.8369L60.7369 38.1853C60.7925 37.6116 60.7566 37.0133 60.6292 36.3905L133.829 7.97918C133.871 8.18678 133.972 8.36088 134.072 8.53498Z" fill="#CACACA" fill-opacity="0.2"/>
</svg>
