<svg width="60" height="60" viewBox="0 0 60 60" fill="none" xmlns="http://www.w3.org/2000/svg">
<g clip-path="url(#clip0_24_3491)">
<path d="M34.0955 22.459H26.2263C25.6831 22.459 25.2427 22.8994 25.2427 23.4426V50.9848C25.2427 51.528 25.6831 51.9685 26.2263 51.9685H34.0955C34.6387 51.9685 35.0792 51.528 35.0792 50.9848V23.4426C35.0792 22.8993 34.6387 22.459 34.0955 22.459ZM33.1119 50.0012H27.21V24.4263H33.1119V50.0012Z" fill="white"/>
<path d="M57.7029 18.5244H49.8337C49.2905 18.5244 48.8501 18.9648 48.8501 19.508V50.9848C48.8501 51.528 49.2905 51.9685 49.8337 51.9685H57.7029C58.2462 51.9685 58.6866 51.528 58.6866 50.9848V19.508C58.6866 18.9647 58.2462 18.5244 57.7029 18.5244ZM56.7193 50.0012H50.8174V20.4917H56.7193V50.0012Z" fill="white"/>
<path d="M45.8992 40.1647H38.03C37.4868 40.1647 37.0464 40.6051 37.0464 41.1483V50.9848C37.0464 51.528 37.4868 51.9685 38.03 51.9685H45.8992C46.4425 51.9685 46.8829 51.528 46.8829 50.9848V41.1483C46.8829 40.605 46.4425 40.1647 45.8992 40.1647ZM44.9156 50.0012H39.0137V42.132H44.9156V50.0012Z" fill="white"/>
<path d="M10.4879 26.3936H2.61866C2.07544 26.3936 1.63501 26.834 1.63501 27.3772V50.9848C1.63501 51.528 2.07544 51.9685 2.61866 51.9685H10.4879C11.0311 51.9685 11.4715 51.528 11.4715 50.9848V27.3772C11.4715 26.8339 11.0311 26.3936 10.4879 26.3936ZM9.50421 50.0012H3.60231V28.3609H9.50421V50.0012Z" fill="white"/>
<path d="M22.2916 32.2955H14.4224C13.8791 32.2955 13.4387 32.7359 13.4387 33.2791V50.9848C13.4387 51.528 13.8791 51.9685 14.4224 51.9685H22.2916C22.8348 51.9685 23.2752 51.528 23.2752 50.9848V33.2791C23.2752 32.7358 22.8348 32.2955 22.2916 32.2955ZM21.3079 50.0012H15.406V34.2628H21.3079V50.0012Z" fill="white"/>
<path d="M53.8266 1.74536C51.6378 1.72962 49.8508 3.49109 49.835 5.67984C49.827 6.78497 50.2809 7.84325 51.0871 8.59919L42.9228 23.5733C42.1832 23.3686 41.3976 23.4048 40.6801 23.6766L33.0852 12.2791C34.5404 10.6653 34.4118 8.17733 32.7978 6.72226C31.1839 5.2672 28.696 5.39569 27.241 7.00961C26.1719 8.1954 25.9252 9.90966 26.6167 11.3487L20.645 16.319C19.0067 15.124 16.7246 15.3914 15.407 16.9328L10.3993 14.4284C10.8535 12.3034 9.49886 10.2125 7.37393 9.75842C5.24888 9.30422 3.15801 10.6587 2.70393 12.7838C2.24973 14.9088 3.60422 16.9997 5.72927 17.4538C6.00039 17.5117 6.27692 17.5408 6.55418 17.5407C7.68845 17.537 8.76518 17.041 9.50513 16.1813L14.5129 18.6857C14.0404 20.8067 15.3768 22.9092 17.4978 23.3817C19.6188 23.8542 21.7213 22.5178 22.1938 20.3968C22.386 19.5343 22.2823 18.6322 21.8991 17.8358L27.8709 12.8654C28.9001 13.6271 30.2438 13.8194 31.4454 13.3769L39.0382 24.7745C37.587 26.3918 37.7217 28.8795 39.3392 30.3307C40.9566 31.782 43.4443 31.6472 44.8955 30.0297C46.3289 28.4322 46.2175 25.9807 44.6452 24.5197L52.8095 9.54558C53.123 9.62747 53.4455 9.66977 53.7695 9.67149C55.9583 9.68723 57.7453 7.92576 57.761 5.73701C57.7768 3.54827 56.0152 1.76122 53.8266 1.74536ZM6.55418 15.5734C5.46762 15.5734 4.58688 14.6927 4.58688 13.6061C4.58688 12.5195 5.46762 11.6388 6.55418 11.6388C7.64075 11.6388 8.52148 12.5195 8.52148 13.6061C8.52148 14.6927 7.64075 15.5734 6.55418 15.5734ZM18.358 21.4753C17.2714 21.4753 16.3907 20.5946 16.3907 19.508C16.3907 18.4214 17.2714 17.5407 18.358 17.5407C19.4445 17.5407 20.3253 18.4214 20.3253 19.508C20.3253 20.5946 19.4445 21.4753 18.358 21.4753ZM30.1618 11.6388C29.0752 11.6388 28.1945 10.7581 28.1945 9.67149C28.1945 8.58493 29.0752 7.70419 30.1618 7.70419C31.2483 7.70419 32.1291 8.58493 32.1291 9.67149C32.1291 10.7581 31.2483 11.6388 30.1618 11.6388ZM41.9656 29.3445C40.879 29.3445 39.9983 28.4638 39.9983 27.3772C39.9983 26.2906 40.879 25.4099 41.9656 25.4099C43.0521 25.4099 43.9329 26.2906 43.9329 27.3772C43.9329 28.4638 43.0521 29.3445 41.9656 29.3445ZM53.7694 7.70419C52.6828 7.70419 51.8021 6.82345 51.8021 5.73689C51.8021 4.65032 52.6828 3.76959 53.7694 3.76959C54.8559 3.76959 55.7367 4.65032 55.7367 5.73689C55.7367 6.82345 54.8559 7.70419 53.7694 7.70419Z" fill="white"/>
<path d="M58.6867 52.9521H1.63502C1.0918 52.9521 0.651367 53.3925 0.651367 53.9358V57.8704C0.651367 58.4136 1.0918 58.854 1.63502 58.854H58.6867C59.2299 58.854 59.6704 58.4136 59.6704 57.8704V53.9358C59.6704 53.3924 59.2299 52.9521 58.6867 52.9521ZM57.7031 56.8867H2.61867V54.9194H57.7031V56.8867Z" fill="white"/>
</g>
<defs>
<clipPath id="clip0_24_3491">
<rect width="59.019" height="59.019" fill="white" transform="translate(0.651367 0.790103)"/>
</clipPath>
</defs>
</svg>
